G75*
%MOIN*%
%OFA0B0*%
%FSLAX24Y24*%
%IPPOS*%
%LPD*%
%AMOC8*
5,1,8,0,0,1.08239X$1,22.5*
%
%ADD10C,0.0000*%
%ADD11R,0.0098X0.0138*%
%ADD12R,0.0276X0.0354*%
%ADD13R,0.0433X0.0394*%
%ADD14R,0.0512X0.0591*%
%ADD15R,0.0630X0.0709*%
%ADD16R,0.0630X0.1063*%
%ADD17R,0.0138X0.0138*%
%ADD18R,0.0315X0.0472*%
%ADD19R,0.0236X0.0236*%
%ADD20R,0.0551X0.0709*%
%ADD21R,0.0500X0.0579*%
%ADD22R,0.0945X0.0945*%
%ADD23R,0.1102X0.1496*%
%ADD24R,0.0394X0.0551*%
%ADD25R,0.0630X0.1181*%
%ADD26R,0.2283X0.2441*%
%ADD27R,0.0866X0.0236*%
%ADD28R,0.0550X0.0137*%
%ADD29R,0.0394X0.0276*%
%ADD30R,0.0374X0.0142*%
%ADD31R,0.2100X0.0760*%
%ADD32R,0.1400X0.0860*%
%ADD33R,0.0900X0.0860*%
%ADD34R,0.0354X0.0256*%
%ADD35R,0.0630X0.0591*%
%ADD36R,0.0748X0.0551*%
%ADD37R,0.0500X0.0220*%
%ADD38R,0.0220X0.0500*%
%ADD39C,0.0059*%
%ADD40R,0.0165X0.0276*%
%ADD41R,0.0315X0.0118*%
%ADD42R,0.0118X0.0315*%
%ADD43R,0.0591X0.0197*%
%ADD44R,0.0197X0.0591*%
%ADD45R,0.0236X0.0866*%
%ADD46R,0.0256X0.0110*%
%ADD47R,0.0110X0.0256*%
%ADD48R,0.0335X0.0866*%
%ADD49R,0.0394X0.0413*%
%ADD50R,0.0610X0.0512*%
%ADD51R,0.0480X0.0880*%
%ADD52R,0.1417X0.0866*%
%ADD53R,0.0228X0.0472*%
%ADD54R,0.0787X0.0787*%
%ADD55R,0.0984X0.1181*%
%ADD56R,0.4098X0.4252*%
%ADD57R,0.0850X0.0420*%
%ADD58R,0.0079X0.0236*%
%ADD59R,0.0236X0.0079*%
D10*
X000363Y000100D02*
X034223Y000100D01*
X034223Y021360D01*
X000363Y021360D01*
X000363Y000100D01*
X001963Y004365D02*
X001965Y004384D01*
X001971Y004402D01*
X001980Y004418D01*
X001993Y004432D01*
X002008Y004443D01*
X002025Y004451D01*
X002044Y004455D01*
X002062Y004455D01*
X002081Y004451D01*
X002098Y004443D01*
X002113Y004432D01*
X002126Y004418D01*
X002135Y004402D01*
X002141Y004384D01*
X002143Y004365D01*
X002141Y004346D01*
X002135Y004328D01*
X002126Y004312D01*
X002113Y004298D01*
X002098Y004287D01*
X002081Y004279D01*
X002062Y004275D01*
X002044Y004275D01*
X002025Y004279D01*
X002008Y004287D01*
X001993Y004298D01*
X001980Y004312D01*
X001971Y004328D01*
X001965Y004346D01*
X001963Y004365D01*
X001964Y004655D02*
X001966Y004675D01*
X001972Y004693D01*
X001981Y004711D01*
X001993Y004726D01*
X002008Y004738D01*
X002026Y004747D01*
X002044Y004753D01*
X002064Y004755D01*
X002084Y004753D01*
X002102Y004747D01*
X002120Y004738D01*
X002135Y004726D01*
X002147Y004711D01*
X002156Y004693D01*
X002162Y004675D01*
X002164Y004655D01*
X002162Y004635D01*
X002156Y004617D01*
X002147Y004599D01*
X002135Y004584D01*
X002120Y004572D01*
X002102Y004563D01*
X002084Y004557D01*
X002064Y004555D01*
X002044Y004557D01*
X002026Y004563D01*
X002008Y004572D01*
X001993Y004584D01*
X001981Y004599D01*
X001972Y004617D01*
X001966Y004635D01*
X001964Y004655D01*
X001963Y004970D02*
X001965Y004991D01*
X001971Y005012D01*
X001980Y005031D01*
X001993Y005047D01*
X002009Y005062D01*
X002027Y005073D01*
X002047Y005081D01*
X002067Y005085D01*
X002089Y005085D01*
X002109Y005081D01*
X002129Y005073D01*
X002147Y005062D01*
X002163Y005047D01*
X002176Y005031D01*
X002185Y005012D01*
X002191Y004991D01*
X002193Y004970D01*
X002191Y004949D01*
X002185Y004928D01*
X002176Y004909D01*
X002163Y004893D01*
X002147Y004878D01*
X002129Y004867D01*
X002109Y004859D01*
X002089Y004855D01*
X002067Y004855D01*
X002047Y004859D01*
X002027Y004867D01*
X002009Y004878D01*
X001993Y004893D01*
X001980Y004909D01*
X001971Y004928D01*
X001965Y004949D01*
X001963Y004970D01*
X001964Y005311D02*
X001966Y005333D01*
X001972Y005354D01*
X001981Y005373D01*
X001993Y005391D01*
X002009Y005407D01*
X002026Y005419D01*
X002046Y005428D01*
X002067Y005434D01*
X002089Y005436D01*
X002111Y005434D01*
X002132Y005428D01*
X002151Y005419D01*
X002169Y005407D01*
X002185Y005391D01*
X002197Y005373D01*
X002206Y005354D01*
X002212Y005333D01*
X002214Y005311D01*
X002212Y005289D01*
X002206Y005268D01*
X002197Y005249D01*
X002185Y005231D01*
X002169Y005215D01*
X002152Y005203D01*
X002132Y005194D01*
X002111Y005188D01*
X002089Y005186D01*
X002067Y005188D01*
X002046Y005194D01*
X002026Y005203D01*
X002009Y005215D01*
X001993Y005231D01*
X001981Y005248D01*
X001972Y005268D01*
X001966Y005289D01*
X001964Y005311D01*
X001964Y005677D02*
X001966Y005700D01*
X001972Y005722D01*
X001981Y005744D01*
X001994Y005763D01*
X002009Y005780D01*
X002027Y005794D01*
X002048Y005805D01*
X002070Y005813D01*
X002092Y005817D01*
X002116Y005817D01*
X002138Y005813D01*
X002160Y005805D01*
X002181Y005794D01*
X002199Y005780D01*
X002214Y005763D01*
X002227Y005744D01*
X002236Y005722D01*
X002242Y005700D01*
X002244Y005677D01*
X002242Y005654D01*
X002236Y005632D01*
X002227Y005610D01*
X002214Y005591D01*
X002199Y005574D01*
X002181Y005560D01*
X002160Y005549D01*
X002138Y005541D01*
X002116Y005537D01*
X002092Y005537D01*
X002070Y005541D01*
X002048Y005549D01*
X002027Y005560D01*
X002009Y005574D01*
X001994Y005591D01*
X001981Y005610D01*
X001972Y005632D01*
X001966Y005654D01*
X001964Y005677D01*
X001964Y006078D02*
X001966Y006103D01*
X001972Y006127D01*
X001981Y006151D01*
X001995Y006172D01*
X002011Y006191D01*
X002030Y006207D01*
X002051Y006221D01*
X002075Y006230D01*
X002099Y006236D01*
X002124Y006238D01*
X002149Y006236D01*
X002173Y006230D01*
X002197Y006221D01*
X002218Y006207D01*
X002237Y006191D01*
X002253Y006172D01*
X002267Y006151D01*
X002276Y006127D01*
X002282Y006103D01*
X002284Y006078D01*
X002282Y006053D01*
X002276Y006029D01*
X002267Y006005D01*
X002253Y005984D01*
X002237Y005965D01*
X002218Y005949D01*
X002197Y005935D01*
X002173Y005926D01*
X002149Y005920D01*
X002124Y005918D01*
X002099Y005920D01*
X002075Y005926D01*
X002051Y005935D01*
X002030Y005949D01*
X002011Y005965D01*
X001995Y005984D01*
X001981Y006005D01*
X001972Y006029D01*
X001966Y006053D01*
X001964Y006078D01*
X001963Y006539D02*
X001965Y006567D01*
X001971Y006594D01*
X001980Y006620D01*
X001993Y006645D01*
X002010Y006668D01*
X002029Y006688D01*
X002051Y006705D01*
X002075Y006719D01*
X002101Y006729D01*
X002128Y006736D01*
X002156Y006739D01*
X002184Y006738D01*
X002211Y006733D01*
X002238Y006724D01*
X002263Y006712D01*
X002286Y006697D01*
X002307Y006678D01*
X002325Y006657D01*
X002340Y006633D01*
X002351Y006607D01*
X002359Y006581D01*
X002363Y006553D01*
X002363Y006525D01*
X002359Y006497D01*
X002351Y006471D01*
X002340Y006445D01*
X002325Y006421D01*
X002307Y006400D01*
X002286Y006381D01*
X002263Y006366D01*
X002238Y006354D01*
X002211Y006345D01*
X002184Y006340D01*
X002156Y006339D01*
X002128Y006342D01*
X002101Y006349D01*
X002075Y006359D01*
X002051Y006373D01*
X002029Y006390D01*
X002010Y006410D01*
X001993Y006433D01*
X001980Y006458D01*
X001971Y006484D01*
X001965Y006511D01*
X001963Y006539D01*
X001964Y007039D02*
X001966Y007067D01*
X001972Y007094D01*
X001981Y007120D01*
X001994Y007145D01*
X002011Y007168D01*
X002030Y007188D01*
X002052Y007205D01*
X002076Y007219D01*
X002102Y007229D01*
X002129Y007236D01*
X002157Y007239D01*
X002185Y007238D01*
X002212Y007233D01*
X002239Y007224D01*
X002264Y007212D01*
X002287Y007197D01*
X002308Y007178D01*
X002326Y007157D01*
X002341Y007133D01*
X002352Y007107D01*
X002360Y007081D01*
X002364Y007053D01*
X002364Y007025D01*
X002360Y006997D01*
X002352Y006971D01*
X002341Y006945D01*
X002326Y006921D01*
X002308Y006900D01*
X002287Y006881D01*
X002264Y006866D01*
X002239Y006854D01*
X002212Y006845D01*
X002185Y006840D01*
X002157Y006839D01*
X002129Y006842D01*
X002102Y006849D01*
X002076Y006859D01*
X002052Y006873D01*
X002030Y006890D01*
X002011Y006910D01*
X001994Y006933D01*
X001981Y006958D01*
X001972Y006984D01*
X001966Y007011D01*
X001964Y007039D01*
X001964Y007566D02*
X001966Y007595D01*
X001972Y007624D01*
X001981Y007652D01*
X001994Y007679D01*
X002011Y007704D01*
X002030Y007726D01*
X002052Y007745D01*
X002077Y007762D01*
X002104Y007775D01*
X002132Y007784D01*
X002161Y007790D01*
X002190Y007792D01*
X002219Y007790D01*
X002248Y007784D01*
X002276Y007775D01*
X002303Y007762D01*
X002328Y007745D01*
X002350Y007726D01*
X002369Y007704D01*
X002386Y007679D01*
X002399Y007652D01*
X002408Y007624D01*
X002414Y007595D01*
X002416Y007566D01*
X002414Y007537D01*
X002408Y007508D01*
X002399Y007480D01*
X002386Y007453D01*
X002369Y007428D01*
X002350Y007406D01*
X002328Y007387D01*
X002303Y007370D01*
X002276Y007357D01*
X002248Y007348D01*
X002219Y007342D01*
X002190Y007340D01*
X002161Y007342D01*
X002132Y007348D01*
X002104Y007357D01*
X002077Y007370D01*
X002052Y007387D01*
X002030Y007406D01*
X002011Y007428D01*
X001994Y007453D01*
X001981Y007480D01*
X001972Y007508D01*
X001966Y007537D01*
X001964Y007566D01*
X001964Y008147D02*
X001966Y008178D01*
X001972Y008209D01*
X001981Y008239D01*
X001994Y008267D01*
X002011Y008294D01*
X002030Y008318D01*
X002053Y008340D01*
X002078Y008359D01*
X002105Y008374D01*
X002134Y008387D01*
X002164Y008395D01*
X002195Y008400D01*
X002226Y008401D01*
X002257Y008398D01*
X002288Y008391D01*
X002317Y008381D01*
X002345Y008367D01*
X002371Y008350D01*
X002395Y008329D01*
X002416Y008306D01*
X002434Y008281D01*
X002449Y008253D01*
X002460Y008224D01*
X002468Y008194D01*
X002472Y008163D01*
X002472Y008131D01*
X002468Y008100D01*
X002460Y008070D01*
X002449Y008041D01*
X002434Y008013D01*
X002416Y007988D01*
X002395Y007965D01*
X002371Y007944D01*
X002345Y007927D01*
X002317Y007913D01*
X002288Y007903D01*
X002257Y007896D01*
X002226Y007893D01*
X002195Y007894D01*
X002164Y007899D01*
X002134Y007907D01*
X002105Y007920D01*
X002078Y007935D01*
X002053Y007954D01*
X002030Y007976D01*
X002011Y008000D01*
X001994Y008027D01*
X001981Y008055D01*
X001972Y008085D01*
X001966Y008116D01*
X001964Y008147D01*
X001963Y008786D02*
X001965Y008819D01*
X001971Y008852D01*
X001980Y008883D01*
X001993Y008914D01*
X002010Y008943D01*
X002030Y008969D01*
X002052Y008993D01*
X002078Y009015D01*
X002105Y009033D01*
X002135Y009048D01*
X002166Y009059D01*
X002199Y009067D01*
X002231Y009071D01*
X002265Y009071D01*
X002297Y009067D01*
X002330Y009059D01*
X002361Y009048D01*
X002390Y009033D01*
X002418Y009015D01*
X002444Y008993D01*
X002466Y008969D01*
X002486Y008943D01*
X002503Y008914D01*
X002516Y008883D01*
X002525Y008852D01*
X002531Y008819D01*
X002533Y008786D01*
X002531Y008753D01*
X002525Y008720D01*
X002516Y008689D01*
X002503Y008658D01*
X002486Y008629D01*
X002466Y008603D01*
X002444Y008579D01*
X002418Y008557D01*
X002391Y008539D01*
X002361Y008524D01*
X002330Y008513D01*
X002297Y008505D01*
X002265Y008501D01*
X002231Y008501D01*
X002199Y008505D01*
X002166Y008513D01*
X002135Y008524D01*
X002105Y008539D01*
X002078Y008557D01*
X002052Y008579D01*
X002030Y008603D01*
X002010Y008629D01*
X001993Y008658D01*
X001980Y008689D01*
X001971Y008720D01*
X001965Y008753D01*
X001963Y008786D01*
X001964Y009492D02*
X001966Y009527D01*
X001972Y009562D01*
X001981Y009596D01*
X001995Y009629D01*
X002011Y009660D01*
X002031Y009689D01*
X002055Y009715D01*
X002081Y009739D01*
X002109Y009760D01*
X002140Y009778D01*
X002172Y009792D01*
X002205Y009802D01*
X002240Y009809D01*
X002275Y009812D01*
X002310Y009811D01*
X002345Y009806D01*
X002380Y009797D01*
X002413Y009785D01*
X002444Y009769D01*
X002474Y009750D01*
X002501Y009727D01*
X002525Y009702D01*
X002547Y009674D01*
X002565Y009644D01*
X002580Y009612D01*
X002592Y009579D01*
X002600Y009545D01*
X002604Y009510D01*
X002604Y009474D01*
X002600Y009439D01*
X002592Y009405D01*
X002580Y009372D01*
X002565Y009340D01*
X002547Y009310D01*
X002525Y009282D01*
X002501Y009257D01*
X002474Y009234D01*
X002444Y009215D01*
X002413Y009199D01*
X002380Y009187D01*
X002345Y009178D01*
X002310Y009173D01*
X002275Y009172D01*
X002240Y009175D01*
X002205Y009182D01*
X002172Y009192D01*
X002140Y009206D01*
X002109Y009224D01*
X002081Y009245D01*
X002055Y009269D01*
X002031Y009295D01*
X002011Y009324D01*
X001995Y009355D01*
X001981Y009388D01*
X001972Y009422D01*
X001966Y009457D01*
X001964Y009492D01*
X001964Y010273D02*
X001966Y010311D01*
X001972Y010348D01*
X001982Y010384D01*
X001995Y010419D01*
X002012Y010453D01*
X002033Y010485D01*
X002056Y010514D01*
X002083Y010541D01*
X002112Y010564D01*
X002144Y010585D01*
X002178Y010602D01*
X002213Y010615D01*
X002249Y010625D01*
X002286Y010631D01*
X002324Y010633D01*
X002362Y010631D01*
X002399Y010625D01*
X002435Y010615D01*
X002470Y010602D01*
X002504Y010585D01*
X002536Y010564D01*
X002565Y010541D01*
X002592Y010514D01*
X002615Y010485D01*
X002636Y010453D01*
X002653Y010419D01*
X002666Y010384D01*
X002676Y010348D01*
X002682Y010311D01*
X002684Y010273D01*
X002682Y010235D01*
X002676Y010198D01*
X002666Y010162D01*
X002653Y010127D01*
X002636Y010093D01*
X002615Y010061D01*
X002592Y010032D01*
X002565Y010005D01*
X002536Y009982D01*
X002504Y009961D01*
X002470Y009944D01*
X002435Y009931D01*
X002399Y009921D01*
X002362Y009915D01*
X002324Y009913D01*
X002286Y009915D01*
X002249Y009921D01*
X002213Y009931D01*
X002178Y009944D01*
X002144Y009961D01*
X002112Y009982D01*
X002083Y010005D01*
X002056Y010032D01*
X002033Y010061D01*
X002012Y010093D01*
X001995Y010127D01*
X001982Y010162D01*
X001972Y010198D01*
X001966Y010235D01*
X001964Y010273D01*
X001964Y011138D02*
X001966Y011178D01*
X001972Y011217D01*
X001981Y011255D01*
X001995Y011293D01*
X002012Y011328D01*
X002032Y011362D01*
X002056Y011394D01*
X002082Y011424D01*
X002112Y011450D01*
X002144Y011474D01*
X002178Y011494D01*
X002213Y011511D01*
X002251Y011525D01*
X002289Y011534D01*
X002328Y011540D01*
X002368Y011542D01*
X002408Y011540D01*
X002447Y011534D01*
X002485Y011525D01*
X002523Y011511D01*
X002558Y011494D01*
X002592Y011474D01*
X002624Y011450D01*
X002654Y011424D01*
X002680Y011394D01*
X002704Y011362D01*
X002724Y011328D01*
X002741Y011293D01*
X002755Y011255D01*
X002764Y011217D01*
X002770Y011178D01*
X002772Y011138D01*
X002770Y011098D01*
X002764Y011059D01*
X002755Y011021D01*
X002741Y010983D01*
X002724Y010948D01*
X002704Y010914D01*
X002680Y010882D01*
X002654Y010852D01*
X002624Y010826D01*
X002592Y010802D01*
X002558Y010782D01*
X002523Y010765D01*
X002485Y010751D01*
X002447Y010742D01*
X002408Y010736D01*
X002368Y010734D01*
X002328Y010736D01*
X002289Y010742D01*
X002251Y010751D01*
X002213Y010765D01*
X002178Y010782D01*
X002144Y010802D01*
X002112Y010826D01*
X002082Y010852D01*
X002056Y010882D01*
X002032Y010914D01*
X002012Y010948D01*
X001995Y010983D01*
X001981Y011021D01*
X001972Y011059D01*
X001966Y011098D01*
X001964Y011138D01*
X001962Y012096D02*
X001964Y012139D01*
X001970Y012181D01*
X001980Y012222D01*
X001994Y012262D01*
X002011Y012301D01*
X002032Y012338D01*
X002056Y012373D01*
X002084Y012406D01*
X002114Y012435D01*
X002147Y012462D01*
X002183Y012486D01*
X002220Y012506D01*
X002260Y012522D01*
X002300Y012535D01*
X002342Y012544D01*
X002384Y012549D01*
X002427Y012550D01*
X002469Y012547D01*
X002511Y012540D01*
X002552Y012529D01*
X002592Y012514D01*
X002631Y012496D01*
X002667Y012474D01*
X002701Y012449D01*
X002733Y012421D01*
X002762Y012390D01*
X002788Y012356D01*
X002811Y012320D01*
X002830Y012282D01*
X002846Y012242D01*
X002858Y012201D01*
X002866Y012160D01*
X002870Y012117D01*
X002870Y012075D01*
X002866Y012032D01*
X002858Y011991D01*
X002846Y011950D01*
X002830Y011910D01*
X002811Y011872D01*
X002788Y011836D01*
X002762Y011802D01*
X002733Y011771D01*
X002701Y011743D01*
X002667Y011718D01*
X002631Y011696D01*
X002592Y011678D01*
X002552Y011663D01*
X002511Y011652D01*
X002469Y011645D01*
X002427Y011642D01*
X002384Y011643D01*
X002342Y011648D01*
X002300Y011657D01*
X002260Y011670D01*
X002220Y011686D01*
X002183Y011706D01*
X002147Y011730D01*
X002114Y011757D01*
X002084Y011786D01*
X002056Y011819D01*
X002032Y011854D01*
X002011Y011891D01*
X001994Y011930D01*
X001980Y011970D01*
X001970Y012011D01*
X001964Y012053D01*
X001962Y012096D01*
X001963Y013160D02*
X001965Y013205D01*
X001971Y013250D01*
X001981Y013294D01*
X001995Y013337D01*
X002012Y013378D01*
X002033Y013418D01*
X002058Y013456D01*
X002086Y013492D01*
X002116Y013525D01*
X002150Y013555D01*
X002186Y013582D01*
X002225Y013605D01*
X002265Y013626D01*
X002307Y013642D01*
X002350Y013655D01*
X002394Y013664D01*
X002439Y013669D01*
X002484Y013670D01*
X002529Y013667D01*
X002574Y013660D01*
X002618Y013649D01*
X002660Y013634D01*
X002702Y013616D01*
X002741Y013594D01*
X002778Y013569D01*
X002813Y013540D01*
X002845Y013508D01*
X002875Y013474D01*
X002901Y013437D01*
X002924Y013399D01*
X002943Y013358D01*
X002959Y013315D01*
X002971Y013272D01*
X002979Y013228D01*
X002983Y013183D01*
X002983Y013137D01*
X002979Y013092D01*
X002971Y013048D01*
X002959Y013005D01*
X002943Y012962D01*
X002924Y012921D01*
X002901Y012883D01*
X002875Y012846D01*
X002845Y012812D01*
X002813Y012780D01*
X002778Y012751D01*
X002741Y012726D01*
X002702Y012704D01*
X002660Y012686D01*
X002618Y012671D01*
X002574Y012660D01*
X002529Y012653D01*
X002484Y012650D01*
X002439Y012651D01*
X002394Y012656D01*
X002350Y012665D01*
X002307Y012678D01*
X002265Y012694D01*
X002225Y012715D01*
X002186Y012738D01*
X002150Y012765D01*
X002116Y012795D01*
X002086Y012828D01*
X002058Y012864D01*
X002033Y012902D01*
X002012Y012942D01*
X001995Y012983D01*
X001981Y013026D01*
X001971Y013070D01*
X001965Y013115D01*
X001963Y013160D01*
X001963Y014340D02*
X001965Y014387D01*
X001971Y014434D01*
X001980Y014480D01*
X001994Y014525D01*
X002011Y014569D01*
X002032Y014611D01*
X002056Y014652D01*
X002083Y014690D01*
X002114Y014726D01*
X002147Y014759D01*
X002183Y014790D01*
X002221Y014817D01*
X002262Y014841D01*
X002304Y014862D01*
X002348Y014879D01*
X002393Y014893D01*
X002439Y014902D01*
X002486Y014908D01*
X002533Y014910D01*
X002580Y014908D01*
X002627Y014902D01*
X002673Y014893D01*
X002718Y014879D01*
X002762Y014862D01*
X002804Y014841D01*
X002845Y014817D01*
X002883Y014790D01*
X002919Y014759D01*
X002952Y014726D01*
X002983Y014690D01*
X003010Y014652D01*
X003034Y014611D01*
X003055Y014569D01*
X003072Y014525D01*
X003086Y014480D01*
X003095Y014434D01*
X003101Y014387D01*
X003103Y014340D01*
X003101Y014293D01*
X003095Y014246D01*
X003086Y014200D01*
X003072Y014155D01*
X003055Y014111D01*
X003034Y014069D01*
X003010Y014028D01*
X002983Y013990D01*
X002952Y013954D01*
X002919Y013921D01*
X002883Y013890D01*
X002845Y013863D01*
X002804Y013839D01*
X002762Y013818D01*
X002718Y013801D01*
X002673Y013787D01*
X002627Y013778D01*
X002580Y013772D01*
X002533Y013770D01*
X002486Y013772D01*
X002439Y013778D01*
X002393Y013787D01*
X002348Y013801D01*
X002304Y013818D01*
X002262Y013839D01*
X002221Y013863D01*
X002183Y013890D01*
X002147Y013921D01*
X002114Y013954D01*
X002083Y013990D01*
X002056Y014028D01*
X002032Y014069D01*
X002011Y014111D01*
X001994Y014155D01*
X001980Y014200D01*
X001971Y014246D01*
X001965Y014293D01*
X001963Y014340D01*
X001963Y015650D02*
X001965Y015700D01*
X001971Y015750D01*
X001981Y015799D01*
X001994Y015848D01*
X002012Y015895D01*
X002033Y015941D01*
X002057Y015984D01*
X002085Y016026D01*
X002116Y016066D01*
X002150Y016103D01*
X002187Y016137D01*
X002227Y016168D01*
X002269Y016196D01*
X002312Y016220D01*
X002358Y016241D01*
X002405Y016259D01*
X002454Y016272D01*
X002503Y016282D01*
X002553Y016288D01*
X002603Y016290D01*
X002653Y016288D01*
X002703Y016282D01*
X002752Y016272D01*
X002801Y016259D01*
X002848Y016241D01*
X002894Y016220D01*
X002937Y016196D01*
X002979Y016168D01*
X003019Y016137D01*
X003056Y016103D01*
X003090Y016066D01*
X003121Y016026D01*
X003149Y015984D01*
X003173Y015941D01*
X003194Y015895D01*
X003212Y015848D01*
X003225Y015799D01*
X003235Y015750D01*
X003241Y015700D01*
X003243Y015650D01*
X003241Y015600D01*
X003235Y015550D01*
X003225Y015501D01*
X003212Y015452D01*
X003194Y015405D01*
X003173Y015359D01*
X003149Y015316D01*
X003121Y015274D01*
X003090Y015234D01*
X003056Y015197D01*
X003019Y015163D01*
X002979Y015132D01*
X002937Y015104D01*
X002894Y015080D01*
X002848Y015059D01*
X002801Y015041D01*
X002752Y015028D01*
X002703Y015018D01*
X002653Y015012D01*
X002603Y015010D01*
X002553Y015012D01*
X002503Y015018D01*
X002454Y015028D01*
X002405Y015041D01*
X002358Y015059D01*
X002312Y015080D01*
X002269Y015104D01*
X002227Y015132D01*
X002187Y015163D01*
X002150Y015197D01*
X002116Y015234D01*
X002085Y015274D01*
X002057Y015316D01*
X002033Y015359D01*
X002012Y015405D01*
X001994Y015452D01*
X001981Y015501D01*
X001971Y015550D01*
X001965Y015600D01*
X001963Y015650D01*
D11*
X004883Y016642D03*
X005079Y016642D03*
D12*
X004971Y015929D03*
X005482Y015929D03*
X005480Y015072D03*
X004969Y015072D03*
D13*
X005042Y014263D03*
X005711Y014263D03*
D14*
X005829Y013437D03*
X005081Y013437D03*
D15*
X005141Y012482D03*
X006244Y012482D03*
D16*
X006256Y011244D03*
X005153Y011244D03*
D17*
X011719Y006399D03*
X012251Y006399D03*
D18*
X012159Y008509D03*
X011529Y008509D03*
D19*
X011330Y007040D03*
X012196Y007040D03*
D20*
X012032Y007716D03*
X010694Y007716D03*
X010694Y009330D03*
X012033Y009330D03*
D21*
X012055Y011887D03*
X010362Y011887D03*
D22*
X010109Y013468D03*
X011841Y013468D03*
D23*
X011756Y015683D03*
X008843Y015683D03*
D24*
X013784Y015729D03*
X014532Y015729D03*
X014158Y016595D03*
D25*
X007029Y006411D03*
X005233Y006411D03*
D26*
X006131Y009238D03*
D27*
X016599Y012931D03*
X016599Y013431D03*
X016599Y013931D03*
X016599Y014431D03*
X018646Y014431D03*
X018646Y013931D03*
X018646Y013431D03*
X018646Y012931D03*
X026692Y012817D03*
X026692Y012317D03*
X026692Y011817D03*
X026692Y011317D03*
X026692Y010817D03*
X026692Y013317D03*
X026692Y013817D03*
X026692Y014317D03*
X026692Y014817D03*
X026692Y015317D03*
X026692Y015817D03*
X033070Y015817D03*
X033070Y015317D03*
X033070Y014817D03*
X033070Y014317D03*
X033070Y013817D03*
X033070Y013317D03*
X033070Y012817D03*
X033070Y012317D03*
X033070Y011817D03*
X033070Y011317D03*
X033070Y010817D03*
D28*
X019048Y010872D03*
X019048Y010617D03*
X019048Y010361D03*
X019048Y010105D03*
X019048Y009849D03*
X019048Y009593D03*
X019048Y009337D03*
X019048Y009081D03*
X019048Y008825D03*
X016170Y008825D03*
X016170Y009081D03*
X016170Y009337D03*
X016170Y009593D03*
X016170Y009849D03*
X016170Y010105D03*
X016170Y010361D03*
X016170Y010617D03*
X016170Y010872D03*
X016170Y011128D03*
X016170Y011384D03*
X016170Y011640D03*
X016170Y011896D03*
X016170Y012152D03*
X019048Y012152D03*
X019048Y011896D03*
X019048Y011640D03*
X019048Y011384D03*
X019048Y011128D03*
D29*
X018085Y014970D03*
X018085Y015344D03*
X018085Y015719D03*
X017141Y015719D03*
X017141Y015344D03*
X017141Y014970D03*
D30*
X017243Y016281D03*
X017243Y016537D03*
X017243Y016793D03*
X017991Y016793D03*
X017991Y016537D03*
X017991Y016281D03*
D31*
X021093Y012972D03*
X024893Y012972D03*
D32*
X024726Y014724D03*
X024726Y016524D03*
D33*
X021026Y016524D03*
X021026Y014724D03*
D34*
X024874Y011563D03*
X024874Y010913D03*
X025700Y010913D03*
X025700Y011563D03*
D35*
X025718Y009776D03*
X023710Y009776D03*
X021547Y009110D03*
X020563Y009110D03*
X020563Y008205D03*
X021547Y008205D03*
X023710Y008280D03*
X025718Y008280D03*
D36*
X022175Y010527D03*
X022175Y011472D03*
X020443Y011472D03*
X020443Y010527D03*
D37*
X024669Y006563D03*
X024669Y006248D03*
X024669Y005933D03*
X024669Y005618D03*
X024669Y005303D03*
X024669Y004988D03*
X024669Y004673D03*
X024669Y004358D03*
X028049Y004358D03*
X028049Y004673D03*
X028049Y004988D03*
X028049Y005303D03*
X028049Y005618D03*
X028049Y005933D03*
X028049Y006248D03*
X028049Y006563D03*
D38*
X027462Y007151D03*
X027147Y007151D03*
X026832Y007151D03*
X026517Y007151D03*
X026202Y007151D03*
X025887Y007151D03*
X025572Y007151D03*
X025257Y007151D03*
X025257Y003771D03*
X025572Y003771D03*
X025887Y003771D03*
X026202Y003771D03*
X026517Y003771D03*
X026832Y003771D03*
X027147Y003771D03*
X027462Y003771D03*
D39*
X030340Y011996D02*
X030400Y011996D01*
X030340Y011996D02*
X030340Y012214D01*
X030400Y012214D01*
X030400Y011996D01*
X030400Y012054D02*
X030340Y012054D01*
X030340Y012112D02*
X030400Y012112D01*
X030400Y012170D02*
X030340Y012170D01*
X030537Y011996D02*
X030597Y011996D01*
X030537Y011996D02*
X030537Y012214D01*
X030597Y012214D01*
X030597Y011996D01*
X030597Y012054D02*
X030537Y012054D01*
X030537Y012112D02*
X030597Y012112D01*
X030597Y012170D02*
X030537Y012170D01*
X030734Y011996D02*
X030794Y011996D01*
X030734Y011996D02*
X030734Y012214D01*
X030794Y012214D01*
X030794Y011996D01*
X030794Y012054D02*
X030734Y012054D01*
X030734Y012112D02*
X030794Y012112D01*
X030794Y012170D02*
X030734Y012170D01*
X030931Y011996D02*
X030991Y011996D01*
X030931Y011996D02*
X030931Y012214D01*
X030991Y012214D01*
X030991Y011996D01*
X030991Y012054D02*
X030931Y012054D01*
X030931Y012112D02*
X030991Y012112D01*
X030991Y012170D02*
X030931Y012170D01*
X031128Y011996D02*
X031188Y011996D01*
X031128Y011996D02*
X031128Y012214D01*
X031188Y012214D01*
X031188Y011996D01*
X031188Y012054D02*
X031128Y012054D01*
X031128Y012112D02*
X031188Y012112D01*
X031188Y012170D02*
X031128Y012170D01*
X031325Y011996D02*
X031385Y011996D01*
X031325Y011996D02*
X031325Y012214D01*
X031385Y012214D01*
X031385Y011996D01*
X031385Y012054D02*
X031325Y012054D01*
X031325Y012112D02*
X031385Y012112D01*
X031385Y012170D02*
X031325Y012170D01*
X031522Y011996D02*
X031582Y011996D01*
X031522Y011996D02*
X031522Y012214D01*
X031582Y012214D01*
X031582Y011996D01*
X031582Y012054D02*
X031522Y012054D01*
X031522Y012112D02*
X031582Y012112D01*
X031582Y012170D02*
X031522Y012170D01*
X031718Y011996D02*
X031778Y011996D01*
X031718Y011996D02*
X031718Y012214D01*
X031778Y012214D01*
X031778Y011996D01*
X031778Y012054D02*
X031718Y012054D01*
X031718Y012112D02*
X031778Y012112D01*
X031778Y012170D02*
X031718Y012170D01*
X031876Y012311D02*
X032094Y012311D01*
X031876Y012311D02*
X031876Y012371D01*
X032094Y012371D01*
X032094Y012311D01*
X032094Y012369D02*
X031876Y012369D01*
X031876Y012508D02*
X032094Y012508D01*
X031876Y012508D02*
X031876Y012568D01*
X032094Y012568D01*
X032094Y012508D01*
X032094Y012566D02*
X031876Y012566D01*
X031876Y012705D02*
X032094Y012705D01*
X031876Y012705D02*
X031876Y012765D01*
X032094Y012765D01*
X032094Y012705D01*
X032094Y012763D02*
X031876Y012763D01*
X031876Y012901D02*
X032094Y012901D01*
X031876Y012901D02*
X031876Y012961D01*
X032094Y012961D01*
X032094Y012901D01*
X032094Y012959D02*
X031876Y012959D01*
X031876Y013098D02*
X032094Y013098D01*
X031876Y013098D02*
X031876Y013158D01*
X032094Y013158D01*
X032094Y013098D01*
X032094Y013156D02*
X031876Y013156D01*
X031876Y013295D02*
X032094Y013295D01*
X031876Y013295D02*
X031876Y013355D01*
X032094Y013355D01*
X032094Y013295D01*
X032094Y013353D02*
X031876Y013353D01*
X031876Y013492D02*
X032094Y013492D01*
X031876Y013492D02*
X031876Y013552D01*
X032094Y013552D01*
X032094Y013492D01*
X032094Y013550D02*
X031876Y013550D01*
X031876Y013689D02*
X032094Y013689D01*
X031876Y013689D02*
X031876Y013749D01*
X032094Y013749D01*
X032094Y013689D01*
X032094Y013747D02*
X031876Y013747D01*
X031778Y013846D02*
X031718Y013846D01*
X031718Y014064D01*
X031778Y014064D01*
X031778Y013846D01*
X031778Y013904D02*
X031718Y013904D01*
X031718Y013962D02*
X031778Y013962D01*
X031778Y014020D02*
X031718Y014020D01*
X031582Y013846D02*
X031522Y013846D01*
X031522Y014064D01*
X031582Y014064D01*
X031582Y013846D01*
X031582Y013904D02*
X031522Y013904D01*
X031522Y013962D02*
X031582Y013962D01*
X031582Y014020D02*
X031522Y014020D01*
X031385Y013846D02*
X031325Y013846D01*
X031325Y014064D01*
X031385Y014064D01*
X031385Y013846D01*
X031385Y013904D02*
X031325Y013904D01*
X031325Y013962D02*
X031385Y013962D01*
X031385Y014020D02*
X031325Y014020D01*
X031188Y013846D02*
X031128Y013846D01*
X031128Y014064D01*
X031188Y014064D01*
X031188Y013846D01*
X031188Y013904D02*
X031128Y013904D01*
X031128Y013962D02*
X031188Y013962D01*
X031188Y014020D02*
X031128Y014020D01*
X030991Y013846D02*
X030931Y013846D01*
X030931Y014064D01*
X030991Y014064D01*
X030991Y013846D01*
X030991Y013904D02*
X030931Y013904D01*
X030931Y013962D02*
X030991Y013962D01*
X030991Y014020D02*
X030931Y014020D01*
X030794Y013846D02*
X030734Y013846D01*
X030734Y014064D01*
X030794Y014064D01*
X030794Y013846D01*
X030794Y013904D02*
X030734Y013904D01*
X030734Y013962D02*
X030794Y013962D01*
X030794Y014020D02*
X030734Y014020D01*
X030597Y013846D02*
X030537Y013846D01*
X030537Y014064D01*
X030597Y014064D01*
X030597Y013846D01*
X030597Y013904D02*
X030537Y013904D01*
X030537Y013962D02*
X030597Y013962D01*
X030597Y014020D02*
X030537Y014020D01*
X030400Y013846D02*
X030340Y013846D01*
X030340Y014064D01*
X030400Y014064D01*
X030400Y013846D01*
X030400Y013904D02*
X030340Y013904D01*
X030340Y013962D02*
X030400Y013962D01*
X030400Y014020D02*
X030340Y014020D01*
X030243Y013689D02*
X030025Y013689D01*
X030025Y013749D01*
X030243Y013749D01*
X030243Y013689D01*
X030243Y013747D02*
X030025Y013747D01*
X030025Y013492D02*
X030243Y013492D01*
X030025Y013492D02*
X030025Y013552D01*
X030243Y013552D01*
X030243Y013492D01*
X030243Y013550D02*
X030025Y013550D01*
X030025Y013295D02*
X030243Y013295D01*
X030025Y013295D02*
X030025Y013355D01*
X030243Y013355D01*
X030243Y013295D01*
X030243Y013353D02*
X030025Y013353D01*
X030025Y013098D02*
X030243Y013098D01*
X030025Y013098D02*
X030025Y013158D01*
X030243Y013158D01*
X030243Y013098D01*
X030243Y013156D02*
X030025Y013156D01*
X030025Y012901D02*
X030243Y012901D01*
X030025Y012901D02*
X030025Y012961D01*
X030243Y012961D01*
X030243Y012901D01*
X030243Y012959D02*
X030025Y012959D01*
X030025Y012705D02*
X030243Y012705D01*
X030025Y012705D02*
X030025Y012765D01*
X030243Y012765D01*
X030243Y012705D01*
X030243Y012763D02*
X030025Y012763D01*
X030025Y012508D02*
X030243Y012508D01*
X030025Y012508D02*
X030025Y012568D01*
X030243Y012568D01*
X030243Y012508D01*
X030243Y012566D02*
X030025Y012566D01*
X030025Y012311D02*
X030243Y012311D01*
X030025Y012311D02*
X030025Y012371D01*
X030243Y012371D01*
X030243Y012311D01*
X030243Y012369D02*
X030025Y012369D01*
D40*
X014414Y014350D03*
X013902Y014350D03*
X013902Y015098D03*
X014158Y015098D03*
X014414Y015098D03*
D41*
X029728Y014020D03*
X029728Y013824D03*
X029728Y013627D03*
X029728Y013430D03*
X029728Y013233D03*
X029728Y013036D03*
X029728Y012839D03*
X029728Y012643D03*
X029728Y012446D03*
X029728Y012249D03*
X029728Y012052D03*
X032405Y012052D03*
X032405Y012249D03*
X032405Y012446D03*
X032405Y012643D03*
X032405Y012839D03*
X032405Y013036D03*
X032405Y013233D03*
X032405Y013430D03*
X032405Y013627D03*
X032405Y013824D03*
X032405Y014020D03*
D42*
X032050Y014375D03*
X031854Y014375D03*
X031657Y014375D03*
X031460Y014375D03*
X031263Y014375D03*
X031066Y014375D03*
X030869Y014375D03*
X030672Y014375D03*
X030476Y014375D03*
X030279Y014375D03*
X030082Y014375D03*
X030082Y011698D03*
X030279Y011698D03*
X030476Y011698D03*
X030672Y011698D03*
X030869Y011698D03*
X031066Y011698D03*
X031263Y011698D03*
X031460Y011698D03*
X031657Y011698D03*
X031854Y011698D03*
X032050Y011698D03*
D43*
X033397Y007675D03*
X033397Y007360D03*
X033397Y007045D03*
X033397Y006730D03*
X033397Y006415D03*
X033397Y006100D03*
X033397Y005785D03*
X033397Y005470D03*
X033397Y005155D03*
X033397Y004840D03*
X033397Y004525D03*
X028830Y004525D03*
X028830Y004840D03*
X028830Y005155D03*
X028830Y005470D03*
X028830Y005785D03*
X028830Y006100D03*
X028830Y006415D03*
X028830Y006730D03*
X028830Y007045D03*
X028830Y007360D03*
X028830Y007675D03*
D44*
X029539Y008383D03*
X029854Y008383D03*
X030169Y008383D03*
X030483Y008383D03*
X030798Y008383D03*
X031113Y008383D03*
X031428Y008383D03*
X031743Y008383D03*
X032058Y008383D03*
X032373Y008383D03*
X032688Y008383D03*
X032688Y003817D03*
X032373Y003817D03*
X032058Y003817D03*
X031743Y003817D03*
X031428Y003817D03*
X031113Y003817D03*
X030798Y003817D03*
X030483Y003817D03*
X030169Y003817D03*
X029854Y003817D03*
X029539Y003817D03*
D45*
X029381Y010128D03*
X028881Y010128D03*
X028381Y010128D03*
X027881Y010128D03*
X027381Y010128D03*
X029881Y010128D03*
X030381Y010128D03*
X030881Y010128D03*
X031381Y010128D03*
X031881Y010128D03*
X032381Y010128D03*
X032381Y016506D03*
X031881Y016506D03*
X031381Y016506D03*
X030881Y016506D03*
X030381Y016506D03*
X029881Y016506D03*
X029381Y016506D03*
X028881Y016506D03*
X028381Y016506D03*
X027881Y016506D03*
X027381Y016506D03*
D46*
X027744Y012625D03*
X027744Y012428D03*
X027744Y012232D03*
X027744Y012035D03*
X028823Y012035D03*
X028823Y012232D03*
X028823Y012428D03*
X028823Y012625D03*
D47*
X028579Y012869D03*
X028382Y012869D03*
X028185Y012869D03*
X027988Y012869D03*
X027988Y011791D03*
X028185Y011791D03*
X028382Y011791D03*
X028579Y011791D03*
D48*
X013225Y004940D03*
X012142Y004940D03*
D49*
X012683Y005540D03*
X012683Y004340D03*
D50*
X020698Y004464D03*
X020698Y006236D03*
X023828Y006236D03*
X023828Y004464D03*
D51*
X015063Y008460D03*
X014153Y008460D03*
X013243Y008460D03*
D52*
X014153Y010900D03*
D53*
X014153Y012341D03*
X013563Y012341D03*
X014744Y012341D03*
D54*
X014153Y013562D03*
D55*
X011817Y010480D03*
X009750Y010480D03*
D56*
X017843Y005690D03*
D57*
X014563Y005690D03*
X014563Y005020D03*
X014563Y004350D03*
X014563Y006360D03*
X014563Y007030D03*
D58*
X030798Y006311D03*
X030956Y006311D03*
X031113Y006311D03*
X031271Y006311D03*
X031428Y006311D03*
X031428Y005209D03*
X031271Y005209D03*
X031113Y005209D03*
X030956Y005209D03*
X030798Y005209D03*
D59*
X030562Y005445D03*
X030562Y005603D03*
X030562Y005760D03*
X030562Y005917D03*
X030562Y006075D03*
X031665Y006075D03*
X031665Y005917D03*
X031665Y005760D03*
X031665Y005603D03*
X031665Y005445D03*
M02*
