G75*
%MOIN*%
%OFA0B0*%
%FSLAX24Y24*%
%IPPOS*%
%LPD*%
%AMOC8*
5,1,8,0,0,1.08239X$1,22.5*
%
%ADD10C,0.0100*%
%ADD11C,0.0080*%
%ADD12C,0.0030*%
%ADD13C,0.0000*%
%ADD14C,0.0020*%
D10*
X004148Y000162D02*
X004148Y002037D01*
X004773Y001412D02*
X004773Y000162D01*
X005398Y000162D02*
X005398Y001412D01*
X006023Y001412D02*
X006023Y000162D01*
X006648Y000162D02*
X006648Y001412D01*
X007273Y001412D02*
X007273Y000162D01*
X007898Y000162D02*
X007898Y001412D01*
X008523Y001412D02*
X008523Y000162D01*
X009148Y000162D02*
X009148Y001762D01*
X009773Y001412D02*
X009773Y000162D01*
X010398Y000162D02*
X010398Y001412D01*
X011023Y001412D02*
X011023Y000162D01*
X011648Y000162D02*
X011648Y001412D01*
X012273Y001412D02*
X012273Y000162D01*
X012898Y000162D02*
X012898Y001412D01*
X013523Y001412D02*
X013523Y000162D01*
X014148Y000162D02*
X014148Y002037D01*
X014773Y001412D02*
X014773Y000162D01*
X015398Y000162D02*
X015398Y001412D01*
X016023Y001412D02*
X016023Y000162D01*
X016648Y000162D02*
X016648Y001412D01*
X017273Y001412D02*
X017273Y000162D01*
X017898Y000162D02*
X017898Y001412D01*
X018523Y001412D02*
X018523Y000162D01*
X019148Y000162D02*
X019148Y001762D01*
X019773Y001412D02*
X019773Y000162D01*
X020398Y000162D02*
X020398Y001412D01*
X021023Y001412D02*
X021023Y000162D01*
X021648Y000162D02*
X021648Y001412D01*
X022273Y001412D02*
X022273Y000162D01*
X022898Y000162D02*
X022898Y001412D01*
X023523Y001412D02*
X023523Y000162D01*
X024148Y000162D02*
X024148Y002037D01*
X024773Y001412D02*
X024773Y000162D01*
X025398Y000162D02*
X025398Y001412D01*
X026023Y001412D02*
X026023Y000162D01*
X026648Y000162D02*
X026648Y001412D01*
X027273Y001412D02*
X027273Y000162D01*
X027898Y000162D02*
X027898Y001412D01*
X028523Y001412D02*
X028523Y000162D01*
X029148Y000162D02*
X029148Y001762D01*
X029773Y001412D02*
X029773Y000162D01*
X030398Y000162D02*
X030398Y001412D01*
X031023Y001412D02*
X031023Y000162D01*
X031648Y000162D02*
X031648Y001412D01*
X032273Y001412D02*
X032273Y000162D01*
X032898Y000162D02*
X032898Y001412D01*
X033523Y001412D02*
X033523Y000162D01*
X034148Y000162D02*
X034148Y002037D01*
X034140Y019316D02*
X034140Y021284D01*
X033747Y021284D02*
X033747Y020103D01*
X033353Y020103D02*
X033353Y021284D01*
X032959Y021284D02*
X032959Y020103D01*
X032566Y020103D02*
X032566Y021284D01*
X032172Y021284D02*
X032172Y019709D01*
X031778Y020103D02*
X031778Y021284D01*
X031385Y021284D02*
X031385Y020103D01*
X030991Y020103D02*
X030991Y021284D01*
X030597Y021284D02*
X030597Y020103D01*
X029810Y020103D02*
X029810Y021284D01*
X030203Y021284D02*
X030203Y019316D01*
X029416Y020103D02*
X029416Y021284D01*
X029022Y021284D02*
X029022Y020103D01*
X028629Y020103D02*
X028629Y021284D01*
X028235Y021284D02*
X028235Y019709D01*
X027841Y020103D02*
X027841Y021284D01*
X027448Y021284D02*
X027448Y020103D01*
X027054Y020103D02*
X027054Y021284D01*
X026660Y021284D02*
X026660Y020103D01*
X025873Y020103D02*
X025873Y021284D01*
X026266Y021284D02*
X026266Y019316D01*
X025479Y020103D02*
X025479Y021284D01*
X025085Y021284D02*
X025085Y020103D01*
X024692Y020103D02*
X024692Y021284D01*
X024298Y021284D02*
X024298Y019709D01*
X023904Y020103D02*
X023904Y021284D01*
X023511Y021284D02*
X023511Y020103D01*
X023117Y020103D02*
X023117Y021284D01*
X022723Y021284D02*
X022723Y020103D01*
X021936Y020103D02*
X021936Y021284D01*
X022329Y021284D02*
X022329Y019316D01*
X021542Y020103D02*
X021542Y021284D01*
X021148Y021284D02*
X021148Y020103D01*
X020755Y020103D02*
X020755Y021284D01*
X020361Y021284D02*
X020361Y019709D01*
X019967Y020103D02*
X019967Y021284D01*
X019574Y021284D02*
X019574Y020103D01*
X019180Y020103D02*
X019180Y021284D01*
X018786Y021284D02*
X018786Y020103D01*
X017999Y020103D02*
X017999Y021284D01*
X018392Y021284D02*
X018392Y019316D01*
X017605Y020103D02*
X017605Y021284D01*
X017211Y021284D02*
X017211Y020103D01*
X016818Y020103D02*
X016818Y021284D01*
X016424Y021284D02*
X016424Y019709D01*
X016030Y020103D02*
X016030Y021284D01*
X015637Y021284D02*
X015637Y020103D01*
X015243Y020103D02*
X015243Y021284D01*
X014849Y021284D02*
X014849Y020103D01*
X014062Y020103D02*
X014062Y021284D01*
X014455Y021284D02*
X014455Y019316D01*
X013668Y020103D02*
X013668Y021284D01*
X013274Y021284D02*
X013274Y020103D01*
X012881Y020103D02*
X012881Y021284D01*
X012487Y021284D02*
X012487Y019709D01*
X012093Y020103D02*
X012093Y021284D01*
X011700Y021284D02*
X011700Y020103D01*
X011306Y020103D02*
X011306Y021284D01*
X010912Y021284D02*
X010912Y020103D01*
X010125Y020103D02*
X010125Y021284D01*
X010518Y021284D02*
X010518Y019316D01*
X009731Y020103D02*
X009731Y021284D01*
X009337Y021284D02*
X009337Y020103D01*
X008944Y020103D02*
X008944Y021284D01*
X008550Y021284D02*
X008550Y019709D01*
X008156Y020103D02*
X008156Y021284D01*
X007763Y021284D02*
X007763Y020103D01*
X007369Y020103D02*
X007369Y021284D01*
X006975Y021284D02*
X006975Y020103D01*
X006188Y020103D02*
X006188Y021284D01*
X005794Y021284D02*
X005794Y020103D01*
X005400Y020103D02*
X005400Y021284D01*
X005007Y021284D02*
X005007Y020103D01*
X004613Y019709D02*
X004613Y021284D01*
X004219Y021284D02*
X004219Y020103D01*
X003826Y020103D02*
X003826Y021284D01*
X003432Y021284D02*
X003432Y020103D01*
X003038Y020103D02*
X003038Y021284D01*
X002644Y021284D02*
X002644Y019316D01*
X006581Y019316D02*
X006581Y021284D01*
D11*
X006541Y019095D02*
X005928Y019095D01*
X005928Y018942D01*
X006541Y018328D01*
X006541Y018175D01*
X009865Y018328D02*
X010018Y018175D01*
X010325Y018175D01*
X010478Y018328D01*
X010478Y018635D01*
X010018Y018635D01*
X009865Y018482D01*
X009865Y018328D01*
X010478Y018635D02*
X010172Y018942D01*
X009865Y019095D01*
X013802Y019095D02*
X014415Y019095D01*
X014415Y018635D01*
X014109Y018789D01*
X013955Y018789D01*
X013802Y018635D01*
X013802Y018328D01*
X013955Y018175D01*
X014262Y018175D01*
X014415Y018328D01*
X017739Y018635D02*
X018352Y018635D01*
X017892Y019095D01*
X017892Y018175D01*
X021676Y018328D02*
X021829Y018175D01*
X022136Y018175D01*
X022289Y018328D01*
X021983Y018635D02*
X021829Y018635D01*
X021676Y018482D01*
X021676Y018328D01*
X021829Y018635D02*
X021676Y018789D01*
X021676Y018942D01*
X021829Y019095D01*
X022136Y019095D01*
X022289Y018942D01*
X025613Y018942D02*
X025613Y018789D01*
X026226Y018175D01*
X025613Y018175D01*
X025613Y018942D02*
X025766Y019095D01*
X026073Y019095D01*
X026226Y018942D01*
X029550Y018175D02*
X030163Y018175D01*
X029857Y018175D02*
X029857Y019095D01*
X030163Y018789D01*
X031385Y018635D02*
X031385Y018175D01*
X031692Y018175D02*
X031692Y018635D01*
X031538Y018789D01*
X031385Y018635D01*
X031692Y018635D02*
X031845Y018789D01*
X031999Y018789D01*
X031999Y018175D01*
X032306Y018175D02*
X032766Y018175D01*
X032919Y018328D01*
X032919Y018635D01*
X032766Y018789D01*
X032306Y018789D01*
X033487Y018942D02*
X033487Y018328D01*
X033640Y018175D01*
X033947Y018175D01*
X034100Y018328D01*
X033487Y018942D01*
X033640Y019095D01*
X033947Y019095D01*
X034100Y018942D01*
X034100Y018328D01*
X014870Y011156D02*
X014870Y004544D01*
X008257Y004544D01*
X008257Y011156D01*
X014870Y011156D01*
X014870Y010803D02*
X014516Y011156D01*
X007886Y009222D02*
X007886Y008947D01*
X007611Y009222D01*
X007886Y009222D01*
X007886Y008947D02*
X007886Y004578D01*
X003241Y004578D01*
X003241Y009222D01*
X007611Y009222D01*
X003330Y003076D02*
X003023Y003076D01*
X002870Y002923D01*
X002870Y002769D01*
X003023Y002616D01*
X002870Y002463D01*
X002870Y002309D01*
X003023Y002156D01*
X003330Y002156D01*
X003483Y002309D01*
X003176Y002616D02*
X003023Y002616D01*
X003483Y002923D02*
X003330Y003076D01*
X012870Y002923D02*
X012870Y002769D01*
X013483Y002156D01*
X012870Y002156D01*
X012870Y002923D02*
X013023Y003076D01*
X013330Y003076D01*
X013483Y002923D01*
X022870Y002156D02*
X023483Y002156D01*
X023176Y002156D02*
X023176Y003076D01*
X023483Y002769D01*
X029756Y002616D02*
X029756Y002156D01*
X030370Y002156D02*
X030370Y002769D01*
X029909Y002769D01*
X029756Y002616D01*
X030676Y002156D02*
X030983Y002156D01*
X030830Y002156D02*
X030830Y002769D01*
X030983Y002769D01*
X030830Y003076D02*
X030830Y003230D01*
X033027Y002962D02*
X033027Y002348D01*
X033180Y002195D01*
X033487Y002195D01*
X033641Y002348D01*
X033027Y002962D01*
X033180Y003116D01*
X033487Y003116D01*
X033641Y002962D01*
X033641Y002348D01*
X002604Y018328D02*
X002451Y018175D01*
X002144Y018175D01*
X001991Y018328D01*
X001991Y018482D01*
X002144Y018635D01*
X002451Y018635D01*
X002604Y018789D01*
X002604Y018942D01*
X002451Y019095D01*
X002144Y019095D01*
X001991Y018942D01*
X001991Y018789D01*
X002144Y018635D01*
X002451Y018635D02*
X002604Y018482D01*
X002604Y018328D01*
D12*
X002917Y016945D02*
X003164Y016945D01*
X003164Y016575D01*
X002917Y016575D01*
X003040Y016760D02*
X003164Y016760D01*
X003285Y016637D02*
X003285Y016884D01*
X003347Y016945D01*
X003532Y016945D01*
X003532Y016575D01*
X003347Y016575D01*
X003285Y016637D01*
X003543Y016385D02*
X003482Y016324D01*
X003728Y016077D01*
X003667Y016015D01*
X003543Y016015D01*
X003482Y016077D01*
X003482Y016324D01*
X003543Y016385D02*
X003667Y016385D01*
X003728Y016324D01*
X003728Y016077D01*
X003605Y015785D02*
X003605Y015415D01*
X003728Y015415D02*
X003482Y015415D01*
X003543Y015185D02*
X003667Y015185D01*
X003728Y015124D01*
X003543Y015185D02*
X003482Y015124D01*
X003482Y015062D01*
X003728Y014815D01*
X003482Y014815D01*
X003543Y014585D02*
X003482Y014524D01*
X003482Y014462D01*
X003543Y014400D01*
X003482Y014338D01*
X003482Y014277D01*
X003543Y014215D01*
X003667Y014215D01*
X003728Y014277D01*
X003605Y014400D02*
X003543Y014400D01*
X003543Y014585D02*
X003667Y014585D01*
X003728Y014524D01*
X003543Y013985D02*
X003728Y013800D01*
X003482Y013800D01*
X003543Y013615D02*
X003543Y013985D01*
X004390Y013945D02*
X004390Y013575D01*
X004513Y013698D01*
X004637Y013575D01*
X004637Y013945D01*
X004758Y013884D02*
X004820Y013945D01*
X004943Y013945D01*
X005005Y013884D01*
X005005Y013637D01*
X004943Y013575D01*
X004820Y013575D01*
X004758Y013637D01*
X004758Y013884D01*
X005127Y013575D02*
X005373Y013575D01*
X005373Y013945D01*
X005742Y013945D02*
X005742Y013575D01*
X005495Y013575D01*
X005495Y013345D02*
X005742Y013345D01*
X005742Y012975D01*
X005495Y012975D01*
X005373Y012975D02*
X005127Y012975D01*
X005005Y012975D02*
X005005Y013345D01*
X004758Y012975D01*
X004758Y013345D01*
X005127Y013345D02*
X005373Y013345D01*
X005373Y012975D01*
X005373Y013160D02*
X005250Y013160D01*
X005618Y013160D02*
X005742Y013160D01*
X005863Y013160D02*
X005925Y013098D01*
X006110Y013098D01*
X006110Y012975D02*
X006110Y013345D01*
X005925Y013345D01*
X005863Y013284D01*
X005863Y013160D01*
X005987Y013098D02*
X005863Y012975D01*
X005742Y012745D02*
X005742Y012437D01*
X005680Y012375D01*
X005557Y012375D01*
X005495Y012437D01*
X005495Y012745D01*
X005373Y012745D02*
X005373Y012375D01*
X005127Y012375D01*
X005250Y012560D02*
X005373Y012560D01*
X005373Y012745D02*
X005127Y012745D01*
X005863Y012375D02*
X006110Y012375D01*
X006110Y012745D01*
X006232Y012684D02*
X006232Y012622D01*
X006293Y012560D01*
X006478Y012560D01*
X006293Y012560D02*
X006232Y012498D01*
X006232Y012437D01*
X006293Y012375D01*
X006478Y012375D01*
X006478Y012745D01*
X006293Y012745D01*
X006232Y012684D01*
X006293Y012975D02*
X006232Y013037D01*
X006232Y013160D01*
X006355Y013160D01*
X006478Y013037D02*
X006478Y013284D01*
X006417Y013345D01*
X006293Y013345D01*
X006232Y013284D01*
X006293Y012975D02*
X006417Y012975D01*
X006478Y013037D01*
X006355Y013575D02*
X006355Y013760D01*
X006232Y013884D01*
X006232Y013945D01*
X006110Y013945D02*
X006110Y013575D01*
X005863Y013575D01*
X005987Y013760D02*
X006110Y013760D01*
X006110Y013945D02*
X005863Y013945D01*
X005863Y014175D02*
X005987Y014298D01*
X005925Y014298D02*
X006110Y014298D01*
X006110Y014175D02*
X006110Y014545D01*
X005925Y014545D01*
X005863Y014484D01*
X005863Y014360D01*
X005925Y014298D01*
X005742Y014360D02*
X005495Y014360D01*
X005495Y014422D02*
X005495Y014175D01*
X005373Y014175D02*
X005373Y014545D01*
X005127Y014175D01*
X005127Y014545D01*
X005005Y014484D02*
X005005Y014237D01*
X004943Y014175D01*
X004820Y014175D01*
X004758Y014237D01*
X004758Y014360D01*
X004882Y014360D01*
X005005Y014484D02*
X004943Y014545D01*
X004820Y014545D01*
X004758Y014484D01*
X004637Y014545D02*
X004637Y014175D01*
X004390Y014175D01*
X004513Y014360D02*
X004637Y014360D01*
X004637Y014545D02*
X004390Y014545D01*
X005495Y014422D02*
X005618Y014545D01*
X005742Y014422D01*
X005742Y014175D01*
X006232Y014237D02*
X006232Y014484D01*
X006293Y014545D01*
X006417Y014545D01*
X006478Y014484D01*
X006478Y014237D01*
X006417Y014175D01*
X006293Y014175D01*
X006232Y014237D01*
X006478Y013945D02*
X006478Y013884D01*
X006355Y013760D01*
X007350Y013803D02*
X007399Y013755D01*
X007495Y013755D01*
X007544Y013803D01*
X007447Y013900D02*
X007399Y013900D01*
X007350Y013852D01*
X007350Y013803D01*
X007399Y013900D02*
X007350Y013948D01*
X007350Y013997D01*
X007399Y014045D01*
X007495Y014045D01*
X007544Y013997D01*
X007645Y013900D02*
X007838Y013900D01*
X007885Y013825D02*
X007823Y013764D01*
X008070Y013517D01*
X008008Y013455D01*
X007885Y013455D01*
X007823Y013517D01*
X007823Y013764D01*
X007885Y013825D02*
X008008Y013825D01*
X008070Y013764D01*
X008070Y013517D01*
X008192Y013455D02*
X008438Y013455D01*
X008315Y013455D02*
X008315Y013825D01*
X008438Y013702D01*
X008438Y014055D02*
X008192Y014055D01*
X008315Y014055D02*
X008315Y014425D01*
X008438Y014302D01*
X008070Y014364D02*
X008070Y014117D01*
X007823Y014364D01*
X007823Y014117D01*
X007885Y014055D01*
X008008Y014055D01*
X008070Y014117D01*
X008070Y014364D02*
X008008Y014425D01*
X007885Y014425D01*
X007823Y014364D01*
X007738Y014403D02*
X007690Y014355D01*
X007593Y014355D01*
X007545Y014403D01*
X007545Y014452D01*
X007593Y014500D01*
X007642Y014500D01*
X007593Y014500D02*
X007545Y014548D01*
X007545Y014597D01*
X007593Y014645D01*
X007690Y014645D01*
X007738Y014597D01*
X007823Y014717D02*
X007885Y014655D01*
X008008Y014655D01*
X008070Y014717D01*
X007823Y014964D01*
X007823Y014717D01*
X007823Y014964D02*
X007885Y015025D01*
X008008Y015025D01*
X008070Y014964D01*
X008070Y014717D01*
X008192Y014655D02*
X008438Y014655D01*
X008315Y014655D02*
X008315Y015025D01*
X008438Y014902D01*
X008897Y014922D02*
X008897Y014675D01*
X008897Y014860D02*
X009143Y014860D01*
X009143Y014922D02*
X009020Y015045D01*
X008897Y014922D01*
X009143Y014922D02*
X009143Y014675D01*
X009265Y014737D02*
X009265Y014860D01*
X009388Y014860D01*
X009265Y014737D02*
X009327Y014675D01*
X009450Y014675D01*
X009512Y014737D01*
X009512Y014984D01*
X009450Y015045D01*
X009327Y015045D01*
X009265Y014984D01*
X009633Y015045D02*
X009880Y015045D01*
X009880Y014675D01*
X009633Y014675D01*
X009757Y014860D02*
X009880Y014860D01*
X010002Y015045D02*
X010002Y014675D01*
X010002Y014445D02*
X010248Y014198D01*
X010187Y014260D02*
X010002Y014075D01*
X009880Y014075D02*
X009757Y014075D01*
X009818Y014075D02*
X009818Y014445D01*
X009757Y014445D02*
X009880Y014445D01*
X009635Y014445D02*
X009635Y014075D01*
X009388Y014075D01*
X009266Y014137D02*
X009205Y014075D01*
X009081Y014075D01*
X009019Y014137D01*
X009019Y014384D01*
X009081Y014445D01*
X009205Y014445D01*
X009266Y014384D01*
X009266Y014137D01*
X009082Y013907D02*
X009082Y013845D01*
X009082Y013722D02*
X009082Y013475D01*
X009143Y013475D02*
X009020Y013475D01*
X009266Y013475D02*
X009389Y013475D01*
X009327Y013475D02*
X009327Y013845D01*
X009389Y013845D01*
X009573Y013845D02*
X009573Y013475D01*
X009635Y013475D02*
X009511Y013475D01*
X009757Y013475D02*
X009880Y013475D01*
X009818Y013475D02*
X009818Y013722D01*
X009880Y013722D01*
X010002Y013660D02*
X010002Y013475D01*
X010125Y013475D02*
X010125Y013660D01*
X010063Y013722D01*
X010002Y013660D01*
X010125Y013660D02*
X010187Y013722D01*
X010248Y013722D01*
X010248Y013475D01*
X010248Y013122D02*
X010187Y013122D01*
X010125Y013060D01*
X010063Y013122D01*
X010002Y013060D01*
X010002Y012875D01*
X009880Y012875D02*
X009757Y012875D01*
X009818Y012875D02*
X009818Y013122D01*
X009880Y013122D01*
X009818Y013245D02*
X009818Y013307D01*
X009573Y013122D02*
X009635Y013060D01*
X009635Y012937D01*
X009573Y012875D01*
X009388Y012875D01*
X009266Y012875D02*
X009266Y013122D01*
X009388Y013122D02*
X009573Y013122D01*
X009266Y012998D02*
X009143Y013122D01*
X009081Y013122D01*
X008959Y013060D02*
X008959Y012937D01*
X008898Y012875D01*
X008774Y012875D01*
X008712Y012937D01*
X008712Y013060D01*
X008774Y013122D01*
X008898Y013122D01*
X008959Y013060D01*
X008438Y013102D02*
X008315Y013225D01*
X008315Y012855D01*
X008438Y012855D02*
X008192Y012855D01*
X008070Y012917D02*
X008008Y012855D01*
X007885Y012855D01*
X007823Y012917D01*
X007823Y013164D01*
X008070Y012917D01*
X008070Y013164D01*
X008008Y013225D01*
X007885Y013225D01*
X007823Y013164D01*
X007838Y013300D02*
X007645Y013300D01*
X007544Y013300D02*
X007447Y013397D01*
X007350Y013445D01*
X007399Y013300D02*
X007544Y013300D01*
X007544Y013203D01*
X007495Y013155D01*
X007399Y013155D01*
X007350Y013203D01*
X007350Y013252D01*
X007399Y013300D01*
X007399Y012845D02*
X007495Y012845D01*
X007544Y012797D01*
X007544Y012748D01*
X007495Y012700D01*
X007350Y012700D01*
X007350Y012603D02*
X007350Y012797D01*
X007399Y012845D01*
X007350Y012603D02*
X007399Y012555D01*
X007495Y012555D01*
X007544Y012603D01*
X007645Y012700D02*
X007838Y012700D01*
X007885Y012625D02*
X007823Y012564D01*
X008070Y012317D01*
X008008Y012255D01*
X007885Y012255D01*
X007823Y012317D01*
X007823Y012564D01*
X007885Y012625D02*
X008008Y012625D01*
X008070Y012564D01*
X008070Y012317D01*
X008192Y012255D02*
X008438Y012255D01*
X008315Y012255D02*
X008315Y012625D01*
X008438Y012502D01*
X008897Y012460D02*
X008897Y012337D01*
X008958Y012275D01*
X009082Y012275D01*
X009143Y012337D01*
X009143Y012460D01*
X009082Y012522D01*
X008958Y012522D01*
X008897Y012460D01*
X009265Y012460D02*
X009265Y012275D01*
X009265Y012460D02*
X009327Y012522D01*
X009512Y012522D01*
X009512Y012275D01*
X009633Y012275D02*
X009818Y012275D01*
X009880Y012337D01*
X009818Y012398D01*
X009633Y012398D01*
X009633Y012460D02*
X009633Y012275D01*
X009633Y012460D02*
X009695Y012522D01*
X009818Y012522D01*
X010002Y012460D02*
X010002Y012275D01*
X010002Y012460D02*
X010063Y012522D01*
X010248Y012522D01*
X010248Y012275D01*
X009818Y012107D02*
X009818Y012045D01*
X009818Y011922D02*
X009818Y011675D01*
X009757Y011675D02*
X009880Y011675D01*
X010002Y011737D02*
X010063Y011675D01*
X010248Y011675D01*
X010248Y011552D02*
X010248Y011922D01*
X010063Y011922D01*
X010002Y011860D01*
X010002Y011737D01*
X009880Y011922D02*
X009818Y011922D01*
X009635Y011860D02*
X009635Y011737D01*
X009573Y011675D01*
X009388Y011675D01*
X009266Y011737D02*
X009266Y011860D01*
X009205Y011922D01*
X009081Y011922D01*
X009019Y011860D01*
X009019Y011737D01*
X009081Y011675D01*
X009205Y011675D01*
X009266Y011737D01*
X009388Y011922D02*
X009573Y011922D01*
X009635Y011860D01*
X008438Y011902D02*
X008315Y012025D01*
X008315Y011655D01*
X008438Y011655D02*
X008192Y011655D01*
X008070Y011717D02*
X007823Y011964D01*
X007823Y011717D01*
X007885Y011655D01*
X008008Y011655D01*
X008070Y011717D01*
X008070Y011964D01*
X008008Y012025D01*
X007885Y012025D01*
X007823Y011964D01*
X007838Y012150D02*
X007645Y012150D01*
X007544Y012198D02*
X007447Y012295D01*
X007447Y012005D01*
X007544Y012005D02*
X007350Y012005D01*
X007249Y012005D02*
X007056Y012198D01*
X007056Y012247D01*
X007104Y012295D01*
X007201Y012295D01*
X007249Y012247D01*
X007249Y012005D02*
X007056Y012005D01*
X006478Y011898D02*
X006355Y011775D01*
X006232Y011898D01*
X006232Y012145D01*
X006110Y012145D02*
X005987Y012145D01*
X006048Y012145D02*
X006048Y011775D01*
X005987Y011775D02*
X006110Y011775D01*
X006110Y011545D02*
X005925Y011545D01*
X005863Y011484D01*
X005863Y011360D01*
X005925Y011298D01*
X006110Y011298D01*
X006110Y011175D02*
X006110Y011545D01*
X006232Y011484D02*
X006293Y011545D01*
X006417Y011545D01*
X006478Y011484D01*
X006478Y011237D01*
X006417Y011175D01*
X006293Y011175D01*
X006232Y011237D01*
X006232Y011360D01*
X006355Y011360D01*
X005987Y011298D02*
X005863Y011175D01*
X005742Y011175D02*
X005742Y011422D01*
X005618Y011545D01*
X005495Y011422D01*
X005495Y011175D01*
X005495Y011360D02*
X005742Y011360D01*
X005373Y011484D02*
X005250Y011360D01*
X005250Y011175D01*
X005250Y011360D02*
X005127Y011484D01*
X005127Y011545D01*
X005128Y011775D02*
X004881Y011775D01*
X005004Y011960D02*
X005128Y011960D01*
X005128Y012145D02*
X005128Y011775D01*
X005249Y011775D02*
X005496Y011775D01*
X005496Y012145D01*
X005618Y012084D02*
X005618Y011837D01*
X005679Y011775D01*
X005803Y011775D01*
X005865Y011837D01*
X005865Y012084D01*
X005803Y012145D01*
X005679Y012145D01*
X005618Y012084D01*
X005128Y012145D02*
X004881Y012145D01*
X004760Y012145D02*
X004513Y012145D01*
X004636Y012145D02*
X004636Y011775D01*
X005373Y011545D02*
X005373Y011484D01*
X005373Y010945D02*
X005373Y010575D01*
X005128Y010575D02*
X004881Y010575D01*
X005004Y010760D02*
X005128Y010760D01*
X005128Y010945D02*
X005128Y010575D01*
X005128Y010945D02*
X004881Y010945D01*
X005249Y010945D02*
X005496Y010945D01*
X005618Y010945D02*
X005742Y010945D01*
X005680Y010945D02*
X005680Y010575D01*
X005742Y010575D02*
X005618Y010575D01*
X005863Y010575D02*
X005863Y010945D01*
X005863Y010760D02*
X006110Y010760D01*
X006110Y010575D02*
X006110Y010945D01*
X006232Y010945D02*
X006232Y010575D01*
X006355Y010698D01*
X006478Y010575D01*
X006478Y010945D01*
X006478Y011898D02*
X006478Y012145D01*
X003728Y012185D02*
X003482Y012185D01*
X003482Y012124D01*
X003728Y011877D01*
X003728Y011815D01*
X003667Y011585D02*
X003543Y011585D01*
X003482Y011524D01*
X003482Y011462D01*
X003543Y011400D01*
X003667Y011400D01*
X003728Y011462D01*
X003728Y011524D01*
X003667Y011585D01*
X003667Y011400D02*
X003728Y011338D01*
X003728Y011277D01*
X003667Y011215D01*
X003543Y011215D01*
X003482Y011277D01*
X003482Y011338D01*
X003543Y011400D01*
X003543Y010985D02*
X003667Y010985D01*
X003728Y010924D01*
X003728Y010862D01*
X003667Y010800D01*
X003482Y010800D01*
X003482Y010677D02*
X003482Y010924D01*
X003543Y010985D01*
X003482Y010677D02*
X003543Y010615D01*
X003667Y010615D01*
X003728Y010677D01*
X001808Y010965D02*
X001562Y010965D01*
X001440Y010965D02*
X001193Y011212D01*
X001193Y011274D01*
X001255Y011335D01*
X001378Y011335D01*
X001440Y011274D01*
X001685Y011335D02*
X001685Y010965D01*
X001440Y010965D02*
X001193Y010965D01*
X001685Y011335D02*
X001808Y011212D01*
X001788Y011925D02*
X001542Y011925D01*
X001420Y011925D02*
X001173Y011925D01*
X001297Y011925D02*
X001297Y012295D01*
X001420Y012172D01*
X001665Y012295D02*
X001665Y011925D01*
X001788Y012172D02*
X001665Y012295D01*
X001675Y013015D02*
X001675Y013385D01*
X001798Y013262D01*
X001798Y013015D02*
X001552Y013015D01*
X001430Y013077D02*
X001183Y013324D01*
X001183Y013077D01*
X001245Y013015D01*
X001368Y013015D01*
X001430Y013077D01*
X001430Y013324D01*
X001368Y013385D01*
X001245Y013385D01*
X001183Y013324D01*
X001593Y014225D02*
X001532Y014287D01*
X001532Y014534D01*
X001593Y014595D01*
X001717Y014595D01*
X001778Y014534D01*
X001778Y014472D01*
X001717Y014410D01*
X001532Y014410D01*
X001593Y014225D02*
X001717Y014225D01*
X001778Y014287D01*
X003482Y013385D02*
X003728Y013385D01*
X003728Y013200D01*
X003605Y013262D01*
X003543Y013262D01*
X003482Y013200D01*
X003482Y013077D01*
X003543Y013015D01*
X003667Y013015D01*
X003728Y013077D01*
X003605Y012724D02*
X003728Y012600D01*
X003543Y012600D01*
X003482Y012538D01*
X003482Y012477D01*
X003543Y012415D01*
X003667Y012415D01*
X003728Y012477D01*
X003728Y012600D01*
X003605Y012724D02*
X003482Y012785D01*
X005495Y014837D02*
X005557Y014775D01*
X005742Y014775D01*
X005742Y015145D01*
X005557Y015145D01*
X005495Y015084D01*
X005495Y014837D01*
X005863Y014775D02*
X006110Y014775D01*
X006110Y015145D01*
X005863Y015145D01*
X005987Y014960D02*
X006110Y014960D01*
X006232Y014960D02*
X006232Y015084D01*
X006293Y015145D01*
X006478Y015145D01*
X006478Y014775D01*
X006478Y014898D02*
X006293Y014898D01*
X006232Y014960D01*
X006355Y014898D02*
X006232Y014775D01*
X006293Y015375D02*
X006478Y015375D01*
X006478Y015745D01*
X006293Y015745D01*
X006232Y015684D01*
X006232Y015622D01*
X006293Y015560D01*
X006478Y015560D01*
X006293Y015560D02*
X006232Y015498D01*
X006232Y015437D01*
X006293Y015375D01*
X006110Y015375D02*
X006110Y015745D01*
X005925Y015745D01*
X005863Y015684D01*
X005863Y015560D01*
X005925Y015498D01*
X006110Y015498D01*
X005987Y015498D02*
X005863Y015375D01*
X005742Y015437D02*
X005680Y015375D01*
X005557Y015375D01*
X005495Y015437D01*
X005495Y015684D01*
X005557Y015745D01*
X005680Y015745D01*
X005742Y015684D01*
X005742Y015437D01*
X005373Y015375D02*
X005250Y015498D01*
X005127Y015375D01*
X005127Y015745D01*
X005005Y015745D02*
X004758Y015375D01*
X004758Y015745D01*
X004758Y015975D02*
X004943Y016160D01*
X005005Y016098D02*
X004758Y016345D01*
X004758Y016575D02*
X004882Y016698D01*
X004820Y016698D02*
X005005Y016698D01*
X005005Y016575D02*
X005005Y016945D01*
X004820Y016945D01*
X004758Y016884D01*
X004758Y016760D01*
X004820Y016698D01*
X005127Y016637D02*
X005127Y016884D01*
X005188Y016945D01*
X005312Y016945D01*
X005373Y016884D01*
X005373Y016637D01*
X005312Y016575D01*
X005188Y016575D01*
X005127Y016637D01*
X005188Y016345D02*
X005312Y016345D01*
X005373Y016284D01*
X005373Y016037D01*
X005312Y015975D01*
X005188Y015975D01*
X005127Y016037D01*
X005005Y015975D02*
X005005Y016345D01*
X005127Y016284D02*
X005188Y016345D01*
X005495Y016222D02*
X005495Y015975D01*
X005495Y016160D02*
X005742Y016160D01*
X005742Y016222D02*
X005618Y016345D01*
X005495Y016222D01*
X005742Y016222D02*
X005742Y015975D01*
X005863Y015975D02*
X006110Y015975D01*
X006110Y016345D01*
X006232Y016284D02*
X006232Y016222D01*
X006293Y016160D01*
X006478Y016160D01*
X006293Y016160D02*
X006232Y016098D01*
X006232Y016037D01*
X006293Y015975D01*
X006478Y015975D01*
X006478Y016345D01*
X006293Y016345D01*
X006232Y016284D01*
X006293Y016575D02*
X006232Y016637D01*
X006293Y016575D02*
X006417Y016575D01*
X006478Y016637D01*
X006478Y016884D01*
X006417Y016945D01*
X006293Y016945D01*
X006232Y016884D01*
X006110Y016884D02*
X006110Y016637D01*
X006048Y016575D01*
X005925Y016575D01*
X005863Y016637D01*
X005863Y016884D01*
X005925Y016945D01*
X006048Y016945D01*
X006110Y016884D01*
X005742Y016945D02*
X005742Y016575D01*
X005495Y016575D01*
X004269Y016637D02*
X004207Y016575D01*
X004083Y016575D01*
X004022Y016637D01*
X003900Y016637D02*
X003838Y016575D01*
X003715Y016575D01*
X003653Y016637D01*
X003653Y016884D01*
X003715Y016945D01*
X003838Y016945D01*
X003900Y016884D01*
X003900Y016637D01*
X004022Y016884D02*
X004083Y016945D01*
X004207Y016945D01*
X004269Y016884D01*
X004269Y016637D01*
X003605Y015785D02*
X003728Y015662D01*
X005005Y015745D02*
X005005Y015375D01*
X005373Y015375D02*
X005373Y015745D01*
X007250Y016155D02*
X007444Y016155D01*
X007250Y016348D01*
X007250Y016397D01*
X007299Y016445D01*
X007395Y016445D01*
X007444Y016397D01*
X007642Y016445D02*
X007642Y016155D01*
X007738Y016155D02*
X007545Y016155D01*
X007738Y016348D02*
X007642Y016445D01*
X007618Y016575D02*
X007556Y016637D01*
X007556Y016698D01*
X007618Y016760D01*
X007741Y016760D01*
X007803Y016822D01*
X007803Y016884D01*
X007741Y016945D01*
X007618Y016945D01*
X007556Y016884D01*
X007618Y016575D02*
X007741Y016575D01*
X007803Y016637D01*
X007924Y016575D02*
X008171Y016575D01*
X008171Y016945D01*
X007924Y016945D01*
X008048Y016760D02*
X008171Y016760D01*
X008293Y016575D02*
X008540Y016945D01*
X008662Y016945D02*
X008785Y016945D01*
X008723Y016945D02*
X008723Y016575D01*
X008662Y016575D02*
X008785Y016575D01*
X008540Y016575D02*
X008293Y016945D01*
X008907Y016945D02*
X009153Y016945D01*
X009153Y016575D01*
X009275Y016575D02*
X009522Y016575D01*
X009522Y016945D01*
X009275Y016945D01*
X009153Y016760D02*
X009030Y016760D01*
X009398Y016760D02*
X009522Y016760D01*
X009643Y016760D02*
X009705Y016698D01*
X009890Y016698D01*
X009890Y016575D02*
X009890Y016945D01*
X009705Y016945D01*
X009643Y016884D01*
X009643Y016760D01*
X009767Y016698D02*
X009643Y016575D01*
X010012Y016760D02*
X010073Y016698D01*
X010258Y016698D01*
X010258Y016575D02*
X010258Y016945D01*
X010073Y016945D01*
X010012Y016884D01*
X010012Y016760D01*
X010002Y016245D02*
X010248Y016245D01*
X010125Y016245D02*
X010125Y015875D01*
X010187Y015645D02*
X010248Y015584D01*
X010248Y015337D01*
X010187Y015275D01*
X010063Y015275D01*
X010002Y015337D01*
X010002Y015460D01*
X010125Y015460D01*
X010002Y015584D02*
X010063Y015645D01*
X010187Y015645D01*
X009880Y015645D02*
X009757Y015645D01*
X009818Y015645D02*
X009818Y015275D01*
X009757Y015275D02*
X009880Y015275D01*
X009635Y015337D02*
X009635Y015584D01*
X009573Y015645D01*
X009449Y015645D01*
X009388Y015584D01*
X009388Y015460D02*
X009511Y015460D01*
X009388Y015460D02*
X009388Y015337D01*
X009449Y015275D01*
X009573Y015275D01*
X009635Y015337D01*
X009266Y015275D02*
X009266Y015522D01*
X009143Y015645D01*
X009019Y015522D01*
X009019Y015275D01*
X009019Y015460D02*
X009266Y015460D01*
X009265Y015875D02*
X009388Y015998D01*
X009327Y015998D02*
X009512Y015998D01*
X009512Y015875D02*
X009512Y016245D01*
X009327Y016245D01*
X009265Y016184D01*
X009265Y016060D01*
X009327Y015998D01*
X009143Y016060D02*
X008897Y016060D01*
X008897Y016122D02*
X008897Y015875D01*
X009143Y015875D02*
X009143Y016122D01*
X009020Y016245D01*
X008897Y016122D01*
X008438Y016102D02*
X008315Y016225D01*
X008315Y015855D01*
X008438Y015855D02*
X008192Y015855D01*
X008070Y015917D02*
X008008Y015855D01*
X007885Y015855D01*
X007823Y015917D01*
X007823Y016164D01*
X008070Y015917D01*
X008070Y016164D01*
X008008Y016225D01*
X007885Y016225D01*
X007823Y016164D01*
X007690Y015845D02*
X007593Y015845D01*
X007545Y015797D01*
X007545Y015603D01*
X007593Y015555D01*
X007690Y015555D01*
X007738Y015603D01*
X007823Y015564D02*
X008070Y015317D01*
X008008Y015255D01*
X007885Y015255D01*
X007823Y015317D01*
X007823Y015564D01*
X007885Y015625D01*
X008008Y015625D01*
X008070Y015564D01*
X008070Y015317D01*
X008192Y015255D02*
X008438Y015255D01*
X008315Y015255D02*
X008315Y015625D01*
X008438Y015502D01*
X007738Y015748D02*
X007690Y015700D01*
X007545Y015700D01*
X007738Y015748D02*
X007738Y015797D01*
X007690Y015845D01*
X007545Y015245D02*
X007642Y015197D01*
X007738Y015100D01*
X007593Y015100D01*
X007545Y015052D01*
X007545Y015003D01*
X007593Y014955D01*
X007690Y014955D01*
X007738Y015003D01*
X007738Y015100D01*
X009633Y015875D02*
X009880Y015875D01*
X009880Y016245D01*
X009633Y016245D01*
X009757Y016060D02*
X009880Y016060D01*
X010002Y015045D02*
X010125Y014922D01*
X010248Y015045D01*
X010248Y014675D01*
X010248Y014445D02*
X010248Y014075D01*
X009818Y013907D02*
X009818Y013845D01*
X009635Y013845D02*
X009573Y013845D01*
X009143Y013722D02*
X009082Y013722D01*
X010125Y013060D02*
X010125Y012875D01*
X010248Y012875D02*
X010248Y013122D01*
X010843Y013080D02*
X011090Y013080D01*
X010905Y013265D01*
X010905Y012895D01*
X010905Y012665D02*
X010843Y012604D01*
X011090Y012357D01*
X011028Y012295D01*
X010905Y012295D01*
X010843Y012357D01*
X010843Y012604D01*
X010905Y012665D02*
X011028Y012665D01*
X011090Y012604D01*
X011090Y012357D01*
X011212Y012357D02*
X011273Y012295D01*
X011397Y012295D01*
X011458Y012357D01*
X011335Y012480D02*
X011273Y012480D01*
X011212Y012418D01*
X011212Y012357D01*
X011273Y012480D02*
X011212Y012542D01*
X011212Y012604D01*
X011273Y012665D01*
X011397Y012665D01*
X011458Y012604D01*
X011458Y012895D02*
X011212Y012895D01*
X011458Y012895D02*
X011212Y013142D01*
X011212Y013204D01*
X011273Y013265D01*
X011397Y013265D01*
X011458Y013204D01*
X011458Y013495D02*
X011212Y013495D01*
X011335Y013495D02*
X011335Y013865D01*
X011458Y013742D01*
X011458Y014095D02*
X011212Y014095D01*
X011090Y014095D02*
X010843Y014342D01*
X010843Y014404D01*
X010905Y014465D01*
X011028Y014465D01*
X011090Y014404D01*
X011335Y014465D02*
X011335Y014095D01*
X011090Y014095D02*
X010843Y014095D01*
X010905Y013865D02*
X010843Y013804D01*
X010843Y013742D01*
X010905Y013680D01*
X011028Y013680D01*
X011090Y013742D01*
X011090Y013804D01*
X011028Y013865D01*
X010905Y013865D01*
X010905Y013680D02*
X010843Y013618D01*
X010843Y013557D01*
X010905Y013495D01*
X011028Y013495D01*
X011090Y013557D01*
X011090Y013618D01*
X011028Y013680D01*
X011458Y014342D02*
X011335Y014465D01*
X011335Y014695D02*
X011335Y015065D01*
X011458Y014942D01*
X011458Y014695D02*
X011212Y014695D01*
X011090Y014757D02*
X010843Y015004D01*
X010843Y014757D01*
X010905Y014695D01*
X011028Y014695D01*
X011090Y014757D01*
X011090Y015004D01*
X011028Y015065D01*
X010905Y015065D01*
X010843Y015004D01*
X011212Y015357D02*
X011273Y015295D01*
X011397Y015295D01*
X011458Y015357D01*
X011458Y015418D01*
X011397Y015480D01*
X011273Y015480D01*
X011212Y015418D01*
X011212Y015357D01*
X011273Y015480D02*
X011212Y015542D01*
X011212Y015604D01*
X011273Y015665D01*
X011397Y015665D01*
X011458Y015604D01*
X011458Y015542D01*
X011397Y015480D01*
X011397Y015895D02*
X011273Y015895D01*
X011212Y015957D01*
X011212Y016018D01*
X011273Y016080D01*
X011458Y016080D01*
X011458Y015957D01*
X011397Y015895D01*
X011458Y016080D02*
X011335Y016204D01*
X011212Y016265D01*
X011141Y016575D02*
X011141Y016945D01*
X011141Y016760D02*
X011388Y016760D01*
X011388Y016575D02*
X011388Y016945D01*
X011509Y016945D02*
X011756Y016945D01*
X011633Y016945D02*
X011633Y016575D01*
X011878Y016637D02*
X011878Y016884D01*
X011940Y016945D01*
X012125Y016945D01*
X012125Y016575D01*
X011940Y016575D01*
X011878Y016637D01*
X012247Y016575D02*
X012370Y016575D01*
X012308Y016575D02*
X012308Y016945D01*
X012247Y016945D02*
X012370Y016945D01*
X012492Y016945D02*
X012492Y016575D01*
X012615Y016698D01*
X012739Y016575D01*
X012739Y016945D01*
X013228Y016945D02*
X013475Y016945D01*
X013475Y016575D01*
X013228Y016575D01*
X013352Y016760D02*
X013475Y016760D01*
X013597Y016637D02*
X013658Y016575D01*
X013782Y016575D01*
X013843Y016637D01*
X013843Y016884D01*
X013782Y016945D01*
X013658Y016945D01*
X013597Y016884D01*
X013965Y016822D02*
X013965Y016575D01*
X013965Y016760D02*
X014212Y016760D01*
X014212Y016822D02*
X014088Y016945D01*
X013965Y016822D01*
X014212Y016822D02*
X014212Y016575D01*
X014333Y016575D02*
X014457Y016698D01*
X014395Y016698D02*
X014580Y016698D01*
X014580Y016575D02*
X014580Y016945D01*
X014395Y016945D01*
X014333Y016884D01*
X014333Y016760D01*
X014395Y016698D01*
X014702Y016945D02*
X014948Y016945D01*
X014825Y016945D02*
X014825Y016575D01*
X011273Y012065D02*
X011458Y011880D01*
X011212Y011880D01*
X011090Y011757D02*
X011090Y012004D01*
X011028Y012065D01*
X010905Y012065D01*
X010843Y012004D01*
X011090Y011757D01*
X011028Y011695D01*
X010905Y011695D01*
X010843Y011757D01*
X010843Y012004D01*
X011273Y012065D02*
X011273Y011695D01*
X001798Y010362D02*
X001675Y010485D01*
X001675Y010115D01*
X001798Y010115D02*
X001552Y010115D01*
X001430Y010177D02*
X001368Y010115D01*
X001245Y010115D01*
X001183Y010177D01*
X001183Y010238D01*
X001245Y010300D01*
X001307Y010300D01*
X001245Y010300D02*
X001183Y010362D01*
X001183Y010424D01*
X001245Y010485D01*
X001368Y010485D01*
X001430Y010424D01*
X001645Y009675D02*
X001645Y009305D01*
X001768Y009305D02*
X001522Y009305D01*
X001400Y009490D02*
X001153Y009490D01*
X001215Y009305D02*
X001215Y009675D01*
X001400Y009490D01*
X001645Y009675D02*
X001768Y009552D01*
X001695Y008985D02*
X001695Y008615D01*
X001818Y008615D02*
X001572Y008615D01*
X001450Y008677D02*
X001388Y008615D01*
X001265Y008615D01*
X001203Y008677D01*
X001203Y008800D01*
X001265Y008862D01*
X001327Y008862D01*
X001450Y008800D01*
X001450Y008985D01*
X001203Y008985D01*
X001695Y008985D02*
X001818Y008862D01*
X001675Y008325D02*
X001675Y007955D01*
X001798Y007955D02*
X001552Y007955D01*
X001430Y008017D02*
X001368Y007955D01*
X001245Y007955D01*
X001183Y008017D01*
X001183Y008078D01*
X001245Y008140D01*
X001430Y008140D01*
X001430Y008017D01*
X001430Y008140D02*
X001307Y008264D01*
X001183Y008325D01*
X001675Y008325D02*
X001798Y008202D01*
X001665Y007735D02*
X001665Y007365D01*
X001788Y007365D02*
X001542Y007365D01*
X001420Y007365D02*
X001420Y007427D01*
X001173Y007674D01*
X001173Y007735D01*
X001420Y007735D01*
X001665Y007735D02*
X001788Y007612D01*
X001675Y007235D02*
X001675Y006865D01*
X001798Y006865D02*
X001552Y006865D01*
X001430Y006927D02*
X001430Y006988D01*
X001368Y007050D01*
X001245Y007050D01*
X001183Y006988D01*
X001183Y006927D01*
X001245Y006865D01*
X001368Y006865D01*
X001430Y006927D01*
X001368Y007050D02*
X001430Y007112D01*
X001430Y007174D01*
X001368Y007235D01*
X001245Y007235D01*
X001183Y007174D01*
X001183Y007112D01*
X001245Y007050D01*
X001255Y006735D02*
X001378Y006735D01*
X001440Y006674D01*
X001440Y006612D01*
X001378Y006550D01*
X001193Y006550D01*
X001193Y006427D02*
X001193Y006674D01*
X001255Y006735D01*
X001685Y006735D02*
X001685Y006365D01*
X001727Y006285D02*
X001788Y006224D01*
X001727Y006285D02*
X001603Y006285D01*
X001542Y006224D01*
X001542Y006162D01*
X001788Y005915D01*
X001542Y005915D01*
X001420Y005977D02*
X001173Y006224D01*
X001173Y005977D01*
X001235Y005915D01*
X001358Y005915D01*
X001420Y005977D01*
X001420Y006224D01*
X001358Y006285D01*
X001235Y006285D01*
X001173Y006224D01*
X001255Y006365D02*
X001193Y006427D01*
X001255Y006365D02*
X001378Y006365D01*
X001440Y006427D01*
X001562Y006365D02*
X001808Y006365D01*
X001808Y006612D02*
X001685Y006735D01*
X001798Y007112D02*
X001675Y007235D01*
X003935Y004385D02*
X003873Y004324D01*
X004120Y004077D01*
X004058Y004015D01*
X003935Y004015D01*
X003873Y004077D01*
X003873Y004324D01*
X003935Y004385D02*
X004058Y004385D01*
X004120Y004324D01*
X004120Y004077D01*
X004242Y004077D02*
X004242Y004138D01*
X004303Y004200D01*
X004489Y004200D01*
X004489Y004077D01*
X004427Y004015D01*
X004303Y004015D01*
X004242Y004077D01*
X004365Y004324D02*
X004489Y004200D01*
X004365Y004324D02*
X004242Y004385D01*
X004733Y004385D02*
X004733Y004015D01*
X004610Y004015D02*
X004857Y004015D01*
X004978Y004200D02*
X005225Y004200D01*
X005347Y004200D02*
X005593Y004200D01*
X005593Y004262D02*
X005470Y004385D01*
X005347Y004262D01*
X005347Y004015D01*
X005593Y004015D02*
X005593Y004262D01*
X005715Y004324D02*
X005777Y004385D01*
X005900Y004385D01*
X005962Y004324D01*
X005962Y004077D01*
X005900Y004015D01*
X005777Y004015D01*
X005715Y004077D01*
X005715Y004200D01*
X005838Y004200D01*
X006083Y004138D02*
X006083Y004077D01*
X006145Y004015D01*
X006330Y004015D01*
X006330Y004385D01*
X006145Y004385D01*
X006083Y004324D01*
X006083Y004262D01*
X006145Y004200D01*
X006330Y004200D01*
X006145Y004200D02*
X006083Y004138D01*
X006452Y004015D02*
X006452Y004385D01*
X006575Y004262D01*
X006698Y004385D01*
X006698Y004015D01*
X004857Y004262D02*
X004733Y004385D01*
X009873Y004385D02*
X009997Y004324D01*
X010120Y004200D01*
X009935Y004200D01*
X009873Y004138D01*
X009873Y004077D01*
X009935Y004015D01*
X010058Y004015D01*
X010120Y004077D01*
X010120Y004200D01*
X010242Y004200D02*
X010242Y004077D01*
X010303Y004015D01*
X010427Y004015D01*
X010489Y004077D01*
X010489Y004200D02*
X010365Y004262D01*
X010303Y004262D01*
X010242Y004200D01*
X010242Y004385D02*
X010489Y004385D01*
X010489Y004200D01*
X010610Y004262D02*
X010610Y004324D01*
X010672Y004385D01*
X010795Y004385D01*
X010857Y004324D01*
X010978Y004200D02*
X011225Y004200D01*
X011347Y004200D02*
X011593Y004200D01*
X011593Y004262D02*
X011470Y004385D01*
X011347Y004262D01*
X011347Y004015D01*
X011593Y004015D02*
X011593Y004262D01*
X011715Y004324D02*
X011777Y004385D01*
X011900Y004385D01*
X011962Y004324D01*
X011962Y004077D01*
X011900Y004015D01*
X011777Y004015D01*
X011715Y004077D01*
X011715Y004200D01*
X011838Y004200D01*
X012083Y004138D02*
X012083Y004077D01*
X012145Y004015D01*
X012330Y004015D01*
X012330Y004385D01*
X012145Y004385D01*
X012083Y004324D01*
X012083Y004262D01*
X012145Y004200D01*
X012330Y004200D01*
X012145Y004200D02*
X012083Y004138D01*
X012452Y004385D02*
X012698Y004385D01*
X012698Y004015D01*
X012698Y004200D02*
X012575Y004200D01*
X010857Y004015D02*
X010610Y004262D01*
X010610Y004015D02*
X010857Y004015D01*
X001697Y015465D02*
X001758Y015527D01*
X001758Y015588D01*
X001697Y015650D01*
X001573Y015650D01*
X001512Y015588D01*
X001512Y015527D01*
X001573Y015465D01*
X001697Y015465D01*
X001697Y015650D02*
X001758Y015712D01*
X001758Y015774D01*
X001697Y015835D01*
X001573Y015835D01*
X001512Y015774D01*
X001512Y015712D01*
X001573Y015650D01*
X001600Y016575D02*
X001477Y016698D01*
X001353Y016575D01*
X001353Y016945D01*
X001232Y016884D02*
X001232Y016637D01*
X001170Y016575D01*
X001047Y016575D01*
X000985Y016637D01*
X000985Y016760D01*
X001108Y016760D01*
X000985Y016884D02*
X001047Y016945D01*
X001170Y016945D01*
X001232Y016884D01*
X001600Y016945D02*
X001600Y016575D01*
X001722Y016575D02*
X001722Y016822D01*
X001845Y016945D01*
X001968Y016822D01*
X001968Y016575D01*
X001968Y016760D02*
X001722Y016760D01*
X030719Y004324D02*
X030719Y004262D01*
X030781Y004200D01*
X030966Y004200D01*
X031087Y004138D02*
X031087Y004077D01*
X031149Y004015D01*
X031272Y004015D01*
X031334Y004077D01*
X031456Y004077D02*
X031456Y004385D01*
X031334Y004324D02*
X031334Y004262D01*
X031272Y004200D01*
X031149Y004200D01*
X031087Y004138D01*
X030966Y004015D02*
X030781Y004015D01*
X030719Y004077D01*
X030719Y004138D01*
X030781Y004200D01*
X030719Y004324D02*
X030781Y004385D01*
X030966Y004385D01*
X030966Y004015D01*
X031456Y004077D02*
X031517Y004015D01*
X031641Y004015D01*
X031702Y004077D01*
X031702Y004385D01*
X031824Y004200D02*
X032071Y004200D01*
X032193Y004015D02*
X032316Y004015D01*
X032255Y004015D02*
X032255Y004385D01*
X032316Y004385D02*
X032193Y004385D01*
X032438Y004385D02*
X032438Y004015D01*
X032685Y004385D01*
X032685Y004015D01*
X032807Y004015D02*
X032930Y004015D01*
X032868Y004015D02*
X032868Y004385D01*
X032807Y004385D02*
X032930Y004385D01*
X033052Y004385D02*
X033052Y004015D01*
X033298Y004015D02*
X033298Y004385D01*
X033175Y004262D01*
X033052Y004385D01*
X031334Y004324D02*
X031272Y004385D01*
X031149Y004385D01*
X031087Y004324D01*
D13*
X034223Y000100D02*
X000363Y000100D01*
X000363Y021360D01*
X034223Y021360D01*
X034223Y000100D01*
X001963Y013160D02*
X001965Y013205D01*
X001971Y013250D01*
X001981Y013294D01*
X001995Y013337D01*
X002012Y013378D01*
X002033Y013418D01*
X002058Y013456D01*
X002086Y013492D01*
X002116Y013525D01*
X002150Y013555D01*
X002186Y013582D01*
X002225Y013605D01*
X002265Y013626D01*
X002307Y013642D01*
X002350Y013655D01*
X002394Y013664D01*
X002439Y013669D01*
X002484Y013670D01*
X002529Y013667D01*
X002574Y013660D01*
X002618Y013649D01*
X002660Y013634D01*
X002702Y013616D01*
X002741Y013594D01*
X002778Y013569D01*
X002813Y013540D01*
X002845Y013508D01*
X002875Y013474D01*
X002901Y013437D01*
X002924Y013399D01*
X002943Y013358D01*
X002959Y013315D01*
X002971Y013272D01*
X002979Y013228D01*
X002983Y013183D01*
X002983Y013137D01*
X002979Y013092D01*
X002971Y013048D01*
X002959Y013005D01*
X002943Y012962D01*
X002924Y012921D01*
X002901Y012883D01*
X002875Y012846D01*
X002845Y012812D01*
X002813Y012780D01*
X002778Y012751D01*
X002741Y012726D01*
X002702Y012704D01*
X002660Y012686D01*
X002618Y012671D01*
X002574Y012660D01*
X002529Y012653D01*
X002484Y012650D01*
X002439Y012651D01*
X002394Y012656D01*
X002350Y012665D01*
X002307Y012678D01*
X002265Y012694D01*
X002225Y012715D01*
X002186Y012738D01*
X002150Y012765D01*
X002116Y012795D01*
X002086Y012828D01*
X002058Y012864D01*
X002033Y012902D01*
X002012Y012942D01*
X001995Y012983D01*
X001981Y013026D01*
X001971Y013070D01*
X001965Y013115D01*
X001963Y013160D01*
X001962Y012096D02*
X001964Y012139D01*
X001970Y012181D01*
X001980Y012222D01*
X001994Y012262D01*
X002011Y012301D01*
X002032Y012338D01*
X002056Y012373D01*
X002084Y012406D01*
X002114Y012435D01*
X002147Y012462D01*
X002183Y012486D01*
X002220Y012506D01*
X002260Y012522D01*
X002300Y012535D01*
X002342Y012544D01*
X002384Y012549D01*
X002427Y012550D01*
X002469Y012547D01*
X002511Y012540D01*
X002552Y012529D01*
X002592Y012514D01*
X002631Y012496D01*
X002667Y012474D01*
X002701Y012449D01*
X002733Y012421D01*
X002762Y012390D01*
X002788Y012356D01*
X002811Y012320D01*
X002830Y012282D01*
X002846Y012242D01*
X002858Y012201D01*
X002866Y012160D01*
X002870Y012117D01*
X002870Y012075D01*
X002866Y012032D01*
X002858Y011991D01*
X002846Y011950D01*
X002830Y011910D01*
X002811Y011872D01*
X002788Y011836D01*
X002762Y011802D01*
X002733Y011771D01*
X002701Y011743D01*
X002667Y011718D01*
X002631Y011696D01*
X002592Y011678D01*
X002552Y011663D01*
X002511Y011652D01*
X002469Y011645D01*
X002427Y011642D01*
X002384Y011643D01*
X002342Y011648D01*
X002300Y011657D01*
X002260Y011670D01*
X002220Y011686D01*
X002183Y011706D01*
X002147Y011730D01*
X002114Y011757D01*
X002084Y011786D01*
X002056Y011819D01*
X002032Y011854D01*
X002011Y011891D01*
X001994Y011930D01*
X001980Y011970D01*
X001970Y012011D01*
X001964Y012053D01*
X001962Y012096D01*
X001964Y011138D02*
X001966Y011178D01*
X001972Y011217D01*
X001981Y011255D01*
X001995Y011293D01*
X002012Y011328D01*
X002032Y011362D01*
X002056Y011394D01*
X002082Y011424D01*
X002112Y011450D01*
X002144Y011474D01*
X002178Y011494D01*
X002213Y011511D01*
X002251Y011525D01*
X002289Y011534D01*
X002328Y011540D01*
X002368Y011542D01*
X002408Y011540D01*
X002447Y011534D01*
X002485Y011525D01*
X002523Y011511D01*
X002558Y011494D01*
X002592Y011474D01*
X002624Y011450D01*
X002654Y011424D01*
X002680Y011394D01*
X002704Y011362D01*
X002724Y011328D01*
X002741Y011293D01*
X002755Y011255D01*
X002764Y011217D01*
X002770Y011178D01*
X002772Y011138D01*
X002770Y011098D01*
X002764Y011059D01*
X002755Y011021D01*
X002741Y010983D01*
X002724Y010948D01*
X002704Y010914D01*
X002680Y010882D01*
X002654Y010852D01*
X002624Y010826D01*
X002592Y010802D01*
X002558Y010782D01*
X002523Y010765D01*
X002485Y010751D01*
X002447Y010742D01*
X002408Y010736D01*
X002368Y010734D01*
X002328Y010736D01*
X002289Y010742D01*
X002251Y010751D01*
X002213Y010765D01*
X002178Y010782D01*
X002144Y010802D01*
X002112Y010826D01*
X002082Y010852D01*
X002056Y010882D01*
X002032Y010914D01*
X002012Y010948D01*
X001995Y010983D01*
X001981Y011021D01*
X001972Y011059D01*
X001966Y011098D01*
X001964Y011138D01*
X001964Y010273D02*
X001966Y010311D01*
X001972Y010348D01*
X001982Y010384D01*
X001995Y010419D01*
X002012Y010453D01*
X002033Y010485D01*
X002056Y010514D01*
X002083Y010541D01*
X002112Y010564D01*
X002144Y010585D01*
X002178Y010602D01*
X002213Y010615D01*
X002249Y010625D01*
X002286Y010631D01*
X002324Y010633D01*
X002362Y010631D01*
X002399Y010625D01*
X002435Y010615D01*
X002470Y010602D01*
X002504Y010585D01*
X002536Y010564D01*
X002565Y010541D01*
X002592Y010514D01*
X002615Y010485D01*
X002636Y010453D01*
X002653Y010419D01*
X002666Y010384D01*
X002676Y010348D01*
X002682Y010311D01*
X002684Y010273D01*
X002682Y010235D01*
X002676Y010198D01*
X002666Y010162D01*
X002653Y010127D01*
X002636Y010093D01*
X002615Y010061D01*
X002592Y010032D01*
X002565Y010005D01*
X002536Y009982D01*
X002504Y009961D01*
X002470Y009944D01*
X002435Y009931D01*
X002399Y009921D01*
X002362Y009915D01*
X002324Y009913D01*
X002286Y009915D01*
X002249Y009921D01*
X002213Y009931D01*
X002178Y009944D01*
X002144Y009961D01*
X002112Y009982D01*
X002083Y010005D01*
X002056Y010032D01*
X002033Y010061D01*
X002012Y010093D01*
X001995Y010127D01*
X001982Y010162D01*
X001972Y010198D01*
X001966Y010235D01*
X001964Y010273D01*
X001964Y009492D02*
X001966Y009527D01*
X001972Y009562D01*
X001981Y009596D01*
X001995Y009629D01*
X002011Y009660D01*
X002031Y009689D01*
X002055Y009715D01*
X002081Y009739D01*
X002109Y009760D01*
X002140Y009778D01*
X002172Y009792D01*
X002205Y009802D01*
X002240Y009809D01*
X002275Y009812D01*
X002310Y009811D01*
X002345Y009806D01*
X002380Y009797D01*
X002413Y009785D01*
X002444Y009769D01*
X002474Y009750D01*
X002501Y009727D01*
X002525Y009702D01*
X002547Y009674D01*
X002565Y009644D01*
X002580Y009612D01*
X002592Y009579D01*
X002600Y009545D01*
X002604Y009510D01*
X002604Y009474D01*
X002600Y009439D01*
X002592Y009405D01*
X002580Y009372D01*
X002565Y009340D01*
X002547Y009310D01*
X002525Y009282D01*
X002501Y009257D01*
X002474Y009234D01*
X002444Y009215D01*
X002413Y009199D01*
X002380Y009187D01*
X002345Y009178D01*
X002310Y009173D01*
X002275Y009172D01*
X002240Y009175D01*
X002205Y009182D01*
X002172Y009192D01*
X002140Y009206D01*
X002109Y009224D01*
X002081Y009245D01*
X002055Y009269D01*
X002031Y009295D01*
X002011Y009324D01*
X001995Y009355D01*
X001981Y009388D01*
X001972Y009422D01*
X001966Y009457D01*
X001964Y009492D01*
X001963Y008786D02*
X001965Y008819D01*
X001971Y008852D01*
X001980Y008883D01*
X001993Y008914D01*
X002010Y008943D01*
X002030Y008969D01*
X002052Y008993D01*
X002078Y009015D01*
X002105Y009033D01*
X002135Y009048D01*
X002166Y009059D01*
X002199Y009067D01*
X002231Y009071D01*
X002265Y009071D01*
X002297Y009067D01*
X002330Y009059D01*
X002361Y009048D01*
X002390Y009033D01*
X002418Y009015D01*
X002444Y008993D01*
X002466Y008969D01*
X002486Y008943D01*
X002503Y008914D01*
X002516Y008883D01*
X002525Y008852D01*
X002531Y008819D01*
X002533Y008786D01*
X002531Y008753D01*
X002525Y008720D01*
X002516Y008689D01*
X002503Y008658D01*
X002486Y008629D01*
X002466Y008603D01*
X002444Y008579D01*
X002418Y008557D01*
X002391Y008539D01*
X002361Y008524D01*
X002330Y008513D01*
X002297Y008505D01*
X002265Y008501D01*
X002231Y008501D01*
X002199Y008505D01*
X002166Y008513D01*
X002135Y008524D01*
X002105Y008539D01*
X002078Y008557D01*
X002052Y008579D01*
X002030Y008603D01*
X002010Y008629D01*
X001993Y008658D01*
X001980Y008689D01*
X001971Y008720D01*
X001965Y008753D01*
X001963Y008786D01*
X001964Y008147D02*
X001966Y008178D01*
X001972Y008209D01*
X001981Y008239D01*
X001994Y008267D01*
X002011Y008294D01*
X002030Y008318D01*
X002053Y008340D01*
X002078Y008359D01*
X002105Y008374D01*
X002134Y008387D01*
X002164Y008395D01*
X002195Y008400D01*
X002226Y008401D01*
X002257Y008398D01*
X002288Y008391D01*
X002317Y008381D01*
X002345Y008367D01*
X002371Y008350D01*
X002395Y008329D01*
X002416Y008306D01*
X002434Y008281D01*
X002449Y008253D01*
X002460Y008224D01*
X002468Y008194D01*
X002472Y008163D01*
X002472Y008131D01*
X002468Y008100D01*
X002460Y008070D01*
X002449Y008041D01*
X002434Y008013D01*
X002416Y007988D01*
X002395Y007965D01*
X002371Y007944D01*
X002345Y007927D01*
X002317Y007913D01*
X002288Y007903D01*
X002257Y007896D01*
X002226Y007893D01*
X002195Y007894D01*
X002164Y007899D01*
X002134Y007907D01*
X002105Y007920D01*
X002078Y007935D01*
X002053Y007954D01*
X002030Y007976D01*
X002011Y008000D01*
X001994Y008027D01*
X001981Y008055D01*
X001972Y008085D01*
X001966Y008116D01*
X001964Y008147D01*
X001964Y007566D02*
X001966Y007595D01*
X001972Y007624D01*
X001981Y007652D01*
X001994Y007679D01*
X002011Y007704D01*
X002030Y007726D01*
X002052Y007745D01*
X002077Y007762D01*
X002104Y007775D01*
X002132Y007784D01*
X002161Y007790D01*
X002190Y007792D01*
X002219Y007790D01*
X002248Y007784D01*
X002276Y007775D01*
X002303Y007762D01*
X002328Y007745D01*
X002350Y007726D01*
X002369Y007704D01*
X002386Y007679D01*
X002399Y007652D01*
X002408Y007624D01*
X002414Y007595D01*
X002416Y007566D01*
X002414Y007537D01*
X002408Y007508D01*
X002399Y007480D01*
X002386Y007453D01*
X002369Y007428D01*
X002350Y007406D01*
X002328Y007387D01*
X002303Y007370D01*
X002276Y007357D01*
X002248Y007348D01*
X002219Y007342D01*
X002190Y007340D01*
X002161Y007342D01*
X002132Y007348D01*
X002104Y007357D01*
X002077Y007370D01*
X002052Y007387D01*
X002030Y007406D01*
X002011Y007428D01*
X001994Y007453D01*
X001981Y007480D01*
X001972Y007508D01*
X001966Y007537D01*
X001964Y007566D01*
X001964Y007039D02*
X001966Y007067D01*
X001972Y007094D01*
X001981Y007120D01*
X001994Y007145D01*
X002011Y007168D01*
X002030Y007188D01*
X002052Y007205D01*
X002076Y007219D01*
X002102Y007229D01*
X002129Y007236D01*
X002157Y007239D01*
X002185Y007238D01*
X002212Y007233D01*
X002239Y007224D01*
X002264Y007212D01*
X002287Y007197D01*
X002308Y007178D01*
X002326Y007157D01*
X002341Y007133D01*
X002352Y007107D01*
X002360Y007081D01*
X002364Y007053D01*
X002364Y007025D01*
X002360Y006997D01*
X002352Y006971D01*
X002341Y006945D01*
X002326Y006921D01*
X002308Y006900D01*
X002287Y006881D01*
X002264Y006866D01*
X002239Y006854D01*
X002212Y006845D01*
X002185Y006840D01*
X002157Y006839D01*
X002129Y006842D01*
X002102Y006849D01*
X002076Y006859D01*
X002052Y006873D01*
X002030Y006890D01*
X002011Y006910D01*
X001994Y006933D01*
X001981Y006958D01*
X001972Y006984D01*
X001966Y007011D01*
X001964Y007039D01*
X001963Y006539D02*
X001965Y006567D01*
X001971Y006594D01*
X001980Y006620D01*
X001993Y006645D01*
X002010Y006668D01*
X002029Y006688D01*
X002051Y006705D01*
X002075Y006719D01*
X002101Y006729D01*
X002128Y006736D01*
X002156Y006739D01*
X002184Y006738D01*
X002211Y006733D01*
X002238Y006724D01*
X002263Y006712D01*
X002286Y006697D01*
X002307Y006678D01*
X002325Y006657D01*
X002340Y006633D01*
X002351Y006607D01*
X002359Y006581D01*
X002363Y006553D01*
X002363Y006525D01*
X002359Y006497D01*
X002351Y006471D01*
X002340Y006445D01*
X002325Y006421D01*
X002307Y006400D01*
X002286Y006381D01*
X002263Y006366D01*
X002238Y006354D01*
X002211Y006345D01*
X002184Y006340D01*
X002156Y006339D01*
X002128Y006342D01*
X002101Y006349D01*
X002075Y006359D01*
X002051Y006373D01*
X002029Y006390D01*
X002010Y006410D01*
X001993Y006433D01*
X001980Y006458D01*
X001971Y006484D01*
X001965Y006511D01*
X001963Y006539D01*
X001964Y006078D02*
X001966Y006103D01*
X001972Y006127D01*
X001981Y006151D01*
X001995Y006172D01*
X002011Y006191D01*
X002030Y006207D01*
X002051Y006221D01*
X002075Y006230D01*
X002099Y006236D01*
X002124Y006238D01*
X002149Y006236D01*
X002173Y006230D01*
X002197Y006221D01*
X002218Y006207D01*
X002237Y006191D01*
X002253Y006172D01*
X002267Y006151D01*
X002276Y006127D01*
X002282Y006103D01*
X002284Y006078D01*
X002282Y006053D01*
X002276Y006029D01*
X002267Y006005D01*
X002253Y005984D01*
X002237Y005965D01*
X002218Y005949D01*
X002197Y005935D01*
X002173Y005926D01*
X002149Y005920D01*
X002124Y005918D01*
X002099Y005920D01*
X002075Y005926D01*
X002051Y005935D01*
X002030Y005949D01*
X002011Y005965D01*
X001995Y005984D01*
X001981Y006005D01*
X001972Y006029D01*
X001966Y006053D01*
X001964Y006078D01*
X001964Y005677D02*
X001966Y005700D01*
X001972Y005722D01*
X001981Y005744D01*
X001994Y005763D01*
X002009Y005780D01*
X002027Y005794D01*
X002048Y005805D01*
X002070Y005813D01*
X002092Y005817D01*
X002116Y005817D01*
X002138Y005813D01*
X002160Y005805D01*
X002181Y005794D01*
X002199Y005780D01*
X002214Y005763D01*
X002227Y005744D01*
X002236Y005722D01*
X002242Y005700D01*
X002244Y005677D01*
X002242Y005654D01*
X002236Y005632D01*
X002227Y005610D01*
X002214Y005591D01*
X002199Y005574D01*
X002181Y005560D01*
X002160Y005549D01*
X002138Y005541D01*
X002116Y005537D01*
X002092Y005537D01*
X002070Y005541D01*
X002048Y005549D01*
X002027Y005560D01*
X002009Y005574D01*
X001994Y005591D01*
X001981Y005610D01*
X001972Y005632D01*
X001966Y005654D01*
X001964Y005677D01*
X001964Y005311D02*
X001966Y005333D01*
X001972Y005354D01*
X001981Y005373D01*
X001993Y005391D01*
X002009Y005407D01*
X002026Y005419D01*
X002046Y005428D01*
X002067Y005434D01*
X002089Y005436D01*
X002111Y005434D01*
X002132Y005428D01*
X002151Y005419D01*
X002169Y005407D01*
X002185Y005391D01*
X002197Y005373D01*
X002206Y005354D01*
X002212Y005333D01*
X002214Y005311D01*
X002212Y005289D01*
X002206Y005268D01*
X002197Y005249D01*
X002185Y005231D01*
X002169Y005215D01*
X002152Y005203D01*
X002132Y005194D01*
X002111Y005188D01*
X002089Y005186D01*
X002067Y005188D01*
X002046Y005194D01*
X002026Y005203D01*
X002009Y005215D01*
X001993Y005231D01*
X001981Y005248D01*
X001972Y005268D01*
X001966Y005289D01*
X001964Y005311D01*
X001963Y004970D02*
X001965Y004991D01*
X001971Y005012D01*
X001980Y005031D01*
X001993Y005047D01*
X002009Y005062D01*
X002027Y005073D01*
X002047Y005081D01*
X002067Y005085D01*
X002089Y005085D01*
X002109Y005081D01*
X002129Y005073D01*
X002147Y005062D01*
X002163Y005047D01*
X002176Y005031D01*
X002185Y005012D01*
X002191Y004991D01*
X002193Y004970D01*
X002191Y004949D01*
X002185Y004928D01*
X002176Y004909D01*
X002163Y004893D01*
X002147Y004878D01*
X002129Y004867D01*
X002109Y004859D01*
X002089Y004855D01*
X002067Y004855D01*
X002047Y004859D01*
X002027Y004867D01*
X002009Y004878D01*
X001993Y004893D01*
X001980Y004909D01*
X001971Y004928D01*
X001965Y004949D01*
X001963Y004970D01*
X001964Y004655D02*
X001966Y004675D01*
X001972Y004693D01*
X001981Y004711D01*
X001993Y004726D01*
X002008Y004738D01*
X002026Y004747D01*
X002044Y004753D01*
X002064Y004755D01*
X002084Y004753D01*
X002102Y004747D01*
X002120Y004738D01*
X002135Y004726D01*
X002147Y004711D01*
X002156Y004693D01*
X002162Y004675D01*
X002164Y004655D01*
X002162Y004635D01*
X002156Y004617D01*
X002147Y004599D01*
X002135Y004584D01*
X002120Y004572D01*
X002102Y004563D01*
X002084Y004557D01*
X002064Y004555D01*
X002044Y004557D01*
X002026Y004563D01*
X002008Y004572D01*
X001993Y004584D01*
X001981Y004599D01*
X001972Y004617D01*
X001966Y004635D01*
X001964Y004655D01*
X001963Y004365D02*
X001965Y004384D01*
X001971Y004402D01*
X001980Y004418D01*
X001993Y004432D01*
X002008Y004443D01*
X002025Y004451D01*
X002044Y004455D01*
X002062Y004455D01*
X002081Y004451D01*
X002098Y004443D01*
X002113Y004432D01*
X002126Y004418D01*
X002135Y004402D01*
X002141Y004384D01*
X002143Y004365D01*
X002141Y004346D01*
X002135Y004328D01*
X002126Y004312D01*
X002113Y004298D01*
X002098Y004287D01*
X002081Y004279D01*
X002062Y004275D01*
X002044Y004275D01*
X002025Y004279D01*
X002008Y004287D01*
X001993Y004298D01*
X001980Y004312D01*
X001971Y004328D01*
X001965Y004346D01*
X001963Y004365D01*
X001963Y014340D02*
X001965Y014387D01*
X001971Y014434D01*
X001980Y014480D01*
X001994Y014525D01*
X002011Y014569D01*
X002032Y014611D01*
X002056Y014652D01*
X002083Y014690D01*
X002114Y014726D01*
X002147Y014759D01*
X002183Y014790D01*
X002221Y014817D01*
X002262Y014841D01*
X002304Y014862D01*
X002348Y014879D01*
X002393Y014893D01*
X002439Y014902D01*
X002486Y014908D01*
X002533Y014910D01*
X002580Y014908D01*
X002627Y014902D01*
X002673Y014893D01*
X002718Y014879D01*
X002762Y014862D01*
X002804Y014841D01*
X002845Y014817D01*
X002883Y014790D01*
X002919Y014759D01*
X002952Y014726D01*
X002983Y014690D01*
X003010Y014652D01*
X003034Y014611D01*
X003055Y014569D01*
X003072Y014525D01*
X003086Y014480D01*
X003095Y014434D01*
X003101Y014387D01*
X003103Y014340D01*
X003101Y014293D01*
X003095Y014246D01*
X003086Y014200D01*
X003072Y014155D01*
X003055Y014111D01*
X003034Y014069D01*
X003010Y014028D01*
X002983Y013990D01*
X002952Y013954D01*
X002919Y013921D01*
X002883Y013890D01*
X002845Y013863D01*
X002804Y013839D01*
X002762Y013818D01*
X002718Y013801D01*
X002673Y013787D01*
X002627Y013778D01*
X002580Y013772D01*
X002533Y013770D01*
X002486Y013772D01*
X002439Y013778D01*
X002393Y013787D01*
X002348Y013801D01*
X002304Y013818D01*
X002262Y013839D01*
X002221Y013863D01*
X002183Y013890D01*
X002147Y013921D01*
X002114Y013954D01*
X002083Y013990D01*
X002056Y014028D01*
X002032Y014069D01*
X002011Y014111D01*
X001994Y014155D01*
X001980Y014200D01*
X001971Y014246D01*
X001965Y014293D01*
X001963Y014340D01*
X001963Y015650D02*
X001965Y015700D01*
X001971Y015750D01*
X001981Y015799D01*
X001994Y015848D01*
X002012Y015895D01*
X002033Y015941D01*
X002057Y015984D01*
X002085Y016026D01*
X002116Y016066D01*
X002150Y016103D01*
X002187Y016137D01*
X002227Y016168D01*
X002269Y016196D01*
X002312Y016220D01*
X002358Y016241D01*
X002405Y016259D01*
X002454Y016272D01*
X002503Y016282D01*
X002553Y016288D01*
X002603Y016290D01*
X002653Y016288D01*
X002703Y016282D01*
X002752Y016272D01*
X002801Y016259D01*
X002848Y016241D01*
X002894Y016220D01*
X002937Y016196D01*
X002979Y016168D01*
X003019Y016137D01*
X003056Y016103D01*
X003090Y016066D01*
X003121Y016026D01*
X003149Y015984D01*
X003173Y015941D01*
X003194Y015895D01*
X003212Y015848D01*
X003225Y015799D01*
X003235Y015750D01*
X003241Y015700D01*
X003243Y015650D01*
X003241Y015600D01*
X003235Y015550D01*
X003225Y015501D01*
X003212Y015452D01*
X003194Y015405D01*
X003173Y015359D01*
X003149Y015316D01*
X003121Y015274D01*
X003090Y015234D01*
X003056Y015197D01*
X003019Y015163D01*
X002979Y015132D01*
X002937Y015104D01*
X002894Y015080D01*
X002848Y015059D01*
X002801Y015041D01*
X002752Y015028D01*
X002703Y015018D01*
X002653Y015012D01*
X002603Y015010D01*
X002553Y015012D01*
X002503Y015018D01*
X002454Y015028D01*
X002405Y015041D01*
X002358Y015059D01*
X002312Y015080D01*
X002269Y015104D01*
X002227Y015132D01*
X002187Y015163D01*
X002150Y015197D01*
X002116Y015234D01*
X002085Y015274D01*
X002057Y015316D01*
X002033Y015359D01*
X002012Y015405D01*
X001994Y015452D01*
X001981Y015501D01*
X001971Y015550D01*
X001965Y015600D01*
X001963Y015650D01*
D14*
X001623Y005800D02*
X001663Y005760D01*
X001623Y005800D02*
X001543Y005800D01*
X001503Y005760D01*
X001503Y005720D01*
X001663Y005560D01*
X001503Y005560D01*
X001424Y005560D02*
X001264Y005560D01*
X001344Y005560D02*
X001344Y005800D01*
X001424Y005720D01*
X001384Y005450D02*
X001304Y005450D01*
X001264Y005410D01*
X001264Y005370D01*
X001424Y005210D01*
X001264Y005210D01*
X001314Y005100D02*
X001274Y005060D01*
X001274Y005020D01*
X001314Y004980D01*
X001274Y004940D01*
X001274Y004900D01*
X001314Y004860D01*
X001394Y004860D01*
X001434Y004900D01*
X001513Y004860D02*
X001673Y004860D01*
X001513Y005020D01*
X001513Y005060D01*
X001553Y005100D01*
X001633Y005100D01*
X001673Y005060D01*
X001663Y005210D02*
X001503Y005370D01*
X001503Y005410D01*
X001543Y005450D01*
X001623Y005450D01*
X001663Y005410D01*
X001663Y005210D02*
X001503Y005210D01*
X001394Y005100D02*
X001314Y005100D01*
X001394Y005100D02*
X001434Y005060D01*
X001354Y004980D02*
X001314Y004980D01*
X001314Y004760D02*
X001434Y004640D01*
X001274Y004640D01*
X001314Y004520D02*
X001314Y004760D01*
X001513Y004720D02*
X001553Y004760D01*
X001633Y004760D01*
X001673Y004720D01*
X001513Y004720D02*
X001513Y004680D01*
X001673Y004520D01*
X001513Y004520D01*
X001543Y004400D02*
X001623Y004400D01*
X001663Y004360D01*
X001543Y004400D02*
X001503Y004360D01*
X001503Y004320D01*
X001663Y004160D01*
X001503Y004160D01*
X001424Y004200D02*
X001384Y004160D01*
X001304Y004160D01*
X001264Y004200D01*
X001264Y004280D01*
X001304Y004320D01*
X001344Y004320D01*
X001424Y004280D01*
X001424Y004400D01*
X001264Y004400D01*
X001424Y005410D02*
X001384Y005450D01*
M02*
